<?xml version="1.0" standalone="no"?>
<!DOCTYPE svg PUBLIC "-//W3C//DTD SVG 20010904//EN"
 "http://www.w3.org/TR/2001/REC-SVG-20010904/DTD/svg10.dtd">
<svg version="1.0" xmlns="http://www.w3.org/2000/svg"
 width="2008.000000pt" height="2008.000000pt" viewBox="0 0 2008.000000 2008.000000"
 preserveAspectRatio="xMidYMid meet">

<g transform="translate(0.000000,2008.000000) scale(0.100000,-0.100000)"
fill="#000000" stroke="none">
<path d="M9649 19140 c-2103 -94 -4058 -878 -5642 -2263 -197 -171 -628 -600
-798 -793 -907 -1026 -1556 -2200 -1934 -3494 -483 -1652 -483 -3438 0 -5090
378 -1294 1026 -2465 1933 -3494 169 -191 601 -620 799 -793 1442 -1262 3208
-2032 5096 -2222 347 -36 537 -44 932 -44 395 0 584 8 935 44 1471 148 2890
657 4123 1479 523 348 931 683 1388 1140 269 268 423 437 629 689 1647 2019
2345 4624 1930 7206 -272 1694 -1022 3269 -2179 4579 -170 193 -601 622 -798
793 -1535 1343 -3406 2116 -5449 2253 -217 14 -747 20 -965 10z m-1372 -1775
c42 -29 38 -55 -43 -297 -81 -244 -100 -280 -168 -312 -30 -14 -94 -16 -518
-16 l-484 0 -63 -182 c-35 -101 -67 -186 -70 -191 -4 -4 -77 -6 -163 -5 l-155
3 107 310 107 310 504 5 c277 3 509 8 516 13 6 4 17 23 23 43 22 67 44 64
-506 64 -272 0 -494 1 -494 3 0 3 76 230 85 255 3 9 143 12 652 12 556 0 652
-2 670 -15z m1978 -15 c33 -17 57 -38 69 -62 l20 -35 -150 -444 -150 -444
-162 -3 c-89 -1 -162 -1 -162 1 0 2 11 37 25 77 14 40 25 77 25 82 0 4 -126 8
-280 8 l-280 0 -117 -85 -117 -85 -205 0 c-118 0 -201 4 -195 9 12 12 924 682
1103 811 79 57 180 126 225 152 l81 49 110 -3 c95 -3 118 -7 160 -28z m1075
27 c0 -4 -76 -228 -85 -249 -6 -16 -24 -18 -171 -18 -90 0 -164 3 -164 8 0 6
26 81 85 250 3 9 46 12 170 12 91 0 165 -1 165 -3z m1927 -12 c42 -29 38 -55
-43 -297 -81 -244 -100 -280 -168 -312 -30 -14 -94 -16 -518 -16 l-484 0 -63
-182 c-35 -101 -67 -186 -70 -191 -4 -4 -77 -6 -163 -5 l-155 3 107 310 107
310 504 5 c277 3 509 8 516 13 6 4 17 23 23 43 22 67 44 64 -506 64 -272 0
-494 1 -494 3 0 3 76 230 85 255 3 9 143 12 652 12 556 0 652 -2 670 -15z
m-2059 -383 c-1 -5 -50 -147 -107 -315 l-105 -307 -167 0 -167 0 104 306 c57
169 107 310 110 315 7 12 337 12 332 1z m-2695 -487 l-45 -135 -164 0 -163 0
47 135 47 135 162 0 162 0 -46 -135z m2050 0 l-45 -135 -164 0 -163 0 47 135
47 135 162 0 162 0 -46 -135z m940 0 l-45 -135 -164 0 -163 0 47 135 47 135
162 0 162 0 -46 -135z m1990 0 l-45 -135 -164 0 -163 0 47 135 47 135 162 0
162 0 -46 -135z m-2708 -675 c216 -16 510 -41 610 -51 50 -6 135 -14 190 -19
55 -6 111 -12 125 -15 14 -3 68 -8 120 -11 52 -3 127 -12 167 -20 40 -8 94
-14 120 -14 27 0 63 -4 82 -10 19 -5 74 -13 123 -16 72 -6 88 -10 88 -23 0
-26 35 -41 118 -51 42 -5 109 -16 147 -24 91 -20 235 -44 260 -44 43 -1 116
-10 122 -16 4 -3 0 -6 -8 -6 -24 0 42 -30 90 -41 25 -6 55 -15 66 -19 23 -10
141 -42 260 -70 71 -17 184 -54 480 -160 142 -50 712 -336 791 -397 34 -25 50
-27 124 -8 19 4 33 -1 58 -22 17 -16 32 -34 32 -40 0 -11 -32 -41 -84 -78 -16
-11 -40 -29 -54 -41 l-25 -20 38 -54 c67 -96 66 -81 65 -508 -1 -214 2 -395 5
-403 3 -8 1 -26 -4 -40 -5 -13 -10 -19 -10 -13 -1 7 -8 15 -17 18 -12 4 -14 1
-9 -14 4 -14 2 -20 -8 -20 -10 0 -13 -7 -10 -20 3 -11 0 -20 -6 -20 -6 0 -11
7 -11 15 0 9 -9 15 -25 15 -14 0 -25 4 -25 9 0 15 18 23 25 11 7 -12 25 -4 25
11 0 5 -6 9 -12 8 -7 -1 -22 -1 -33 0 -16 1 -17 3 -5 10 8 6 17 8 21 5 4 -2
12 3 19 11 10 12 10 15 -3 15 -8 0 -20 7 -27 15 -7 8 -19 15 -27 15 -12 0 -12
-2 0 -15 12 -12 13 -20 4 -40 -7 -14 -15 -25 -19 -25 -5 0 -8 -7 -8 -16 0 -10
6 -14 14 -11 8 3 20 -1 26 -9 10 -12 8 -14 -16 -15 -16 -1 -37 -1 -46 0 -30 3
-20 -17 12 -24 16 -4 33 -11 36 -17 4 -7 -4 -8 -23 -4 -24 6 -32 3 -37 -11 -3
-10 -9 -24 -12 -32 -5 -9 -2 -12 7 -9 8 4 23 10 33 14 12 4 6 -5 -14 -25 -28
-26 -32 -34 -20 -41 22 -14 33 -12 26 5 -3 8 -1 15 4 15 10 0 14 -15 11 -34
-3 -15 50 -116 61 -116 5 0 6 -4 3 -10 -8 -12 -65 52 -65 74 0 9 -7 16 -15 16
-22 0 -67 52 -55 64 6 6 10 16 10 24 0 12 -3 12 -15 2 -23 -19 -18 -43 15 -75
17 -16 30 -34 30 -40 0 -7 20 -34 44 -61 38 -42 46 -46 60 -35 11 9 16 10 16
2 0 -6 -5 -11 -12 -11 -6 0 -9 -3 -5 -6 3 -3 8 -5 12 -4 9 1 38 -30 32 -36 -6
-6 -45 12 -67 32 -46 42 -79 63 -84 55 -4 -5 0 -12 6 -15 10 -5 10 -7 1 -12
-16 -7 -5 -34 14 -34 13 0 13 3 3 15 -10 12 -10 15 3 15 26 0 29 -18 5 -34
-19 -14 -23 -14 -34 2 -17 23 -31 6 -16 -18 7 -11 8 -20 3 -20 -5 0 -12 6 -14
13 -4 8 -8 8 -14 2 -4 -5 -12 -11 -18 -12 -5 -1 -17 -3 -25 -6 -8 -2 -12 -2
-7 0 4 3 7 14 6 26 0 13 -3 17 -6 8 -8 -20 -41 -51 -55 -51 -6 0 -4 -7 5 -18
31 -34 -7 -37 -45 -4 -16 14 -18 13 -18 -6 0 -21 31 -39 49 -27 5 3 12 1 16
-5 4 -6 -8 -13 -27 -17 l-33 -8 40 -5 40 -5 -30 -17 c-54 -31 18 -16 110 22
11 5 64 23 118 41 53 17 99 35 102 39 3 4 -5 10 -18 14 -18 5 -20 8 -7 16 35
23 40 12 38 -72 -1 -46 -3 -64 -5 -42 -3 31 -9 43 -24 47 -10 3 -22 1 -25 -4
-3 -5 -14 -9 -25 -9 -10 0 -19 -4 -19 -10 0 -5 -6 -10 -13 -10 -11 0 -97 -34
-202 -80 -11 -5 -31 -12 -45 -16 -14 -4 -27 -10 -30 -13 -3 -4 -16 -12 -30
-18 l-25 -12 23 0 c13 -1 31 3 40 8 10 5 27 5 42 -2 l25 -10 -23 -6 c-32 -8
-32 -16 1 -41 15 -12 27 -28 27 -36 0 -19 -5 -18 -36 11 -14 13 -30 22 -35 20
-4 -3 -10 -1 -14 5 -12 20 -21 9 -22 -30 -2 -36 0 -40 22 -40 34 0 41 -18 8
-22 -25 -3 -28 -6 -25 -38 1 -19 7 -39 12 -44 18 -18 10 -34 -20 -41 -23 -5
-29 -12 -29 -33 0 -15 -3 -128 -5 -252 -4 -184 -10 -3686 -7 -3727 1 -7 26
-27 56 -44 92 -52 79 -52 -92 -3 -14 4 -13 -48 -18 1674 -3 880 -13 1947 -21
2215 -3 94 -5 526 -5 960 1 819 -2 885 -39 885 -9 0 -26 -11 -37 -23 -20 -23
-20 -32 -14 -383 3 -197 6 -561 5 -809 -1 -514 -1 -3937 0 -4005 0 -25 -1
-137 -2 -250 -2 -190 -3 -203 -19 -188 -15 16 -16 142 -21 1575 -2 857 -7
1682 -10 1833 l-7 274 -25 7 c-24 7 -24 7 -2 8 l22 1 0 355 c0 331 -1 355 -17
355 -15 0 -15 2 -4 9 16 10 29 131 14 131 -10 0 -49 -26 -77 -52 -11 -10 -14
-18 -8 -18 19 0 14 -28 -7 -39 -22 -12 -23 -59 -2 -84 20 -25 9 -41 -14 -20
-11 10 -41 32 -67 48 l-46 29 0 146 c0 80 2 135 5 123 2 -13 9 -23 14 -23 5 0
9 -11 9 -25 0 -14 5 -25 10 -25 6 0 10 -10 10 -22 1 -22 1 -23 15 -4 8 11 15
14 15 7 0 -7 5 -9 10 -6 6 4 8 10 6 13 -2 4 9 15 25 24 16 10 31 13 34 7 4 -5
1 -9 -5 -9 -15 0 -44 -29 -37 -37 4 -3 18 2 31 11 31 20 36 20 36 1 0 -9 -9
-15 -25 -15 -15 0 -23 -5 -20 -13 3 -7 -7 -20 -22 -30 -33 -22 -24 -19 37 10
25 11 53 23 63 27 16 5 17 35 19 413 3 515 4 588 11 607 4 10 -1 17 -16 21
-12 4 -87 36 -167 72 -175 78 -167 75 -260 112 -123 48 -289 106 -370 129 -19
6 -107 32 -195 60 -88 27 -187 55 -220 62 -33 6 -136 31 -230 55 -93 24 -249
58 -345 74 -96 17 -222 40 -280 51 -179 34 -635 80 -1155 117 -427 30 -1559
20 -1940 -18 -55 -5 -152 -14 -214 -19 -63 -5 -137 -17 -164 -26 -35 -12 -51
-13 -56 -5 -5 7 -33 8 -96 1 -50 -5 -162 -17 -250 -25 -147 -15 -468 -62 -575
-84 -25 -5 -90 -17 -145 -26 -132 -23 -284 -58 -425 -100 -63 -18 -178 -50
-255 -70 -77 -20 -178 -52 -225 -70 -47 -19 -98 -37 -115 -41 -29 -7 -159 -55
-200 -74 -11 -5 -69 -29 -130 -54 -132 -53 -169 -68 -261 -111 l-72 -33 -11
-64 c-30 -163 -66 -1250 -43 -1330 5 -20 6 -40 1 -45 -5 -5 -10 -921 -11
-2088 -2 -1695 -5 -2084 -16 -2103 -16 -27 -173 -106 -182 -91 -5 6 -69 7
-191 1 l-184 -9 187 -1 c102 -1 188 -5 190 -9 5 -12 103 -43 136 -43 16 0 34
-6 40 -13 6 -7 18 -94 26 -192 23 -264 32 -326 69 -476 56 -222 193 -508 429
-896 11 -18 18 -33 15 -33 -9 0 -277 432 -277 447 0 3 -13 25 -30 50 -16 24
-30 48 -30 52 0 5 -7 14 -15 21 -21 17 -19 10 9 -41 14 -24 34 -67 45 -96 29
-73 139 -294 156 -313 8 -9 15 -20 15 -24 0 -5 13 -25 28 -45 16 -20 37 -51
48 -69 16 -29 17 -34 4 -42 -26 -17 -34 -11 -79 50 -58 79 -67 86 -88 69 -15
-13 -16 -11 -11 15 5 26 -10 66 -32 86 -3 3 -13 17 -23 33 -10 15 -24 27 -31
27 -15 0 -106 -102 -106 -118 0 -5 -8 -13 -17 -16 -15 -6 -15 -8 -3 -16 12 -8
11 -10 -6 -10 -13 0 -50 -26 -87 -59 -36 -32 -71 -61 -78 -63 -21 -7 7 -61 73
-140 32 -38 58 -73 58 -76 0 -4 -12 7 -27 23 -14 17 -46 54 -72 84 -123 143
-279 383 -326 501 -15 36 -32 79 -39 95 -41 91 -81 239 -121 440 -47 240 -55
312 -69 623 -2 46 -7 86 -10 90 -4 3 -21 -2 -39 -11 l-32 -17 1 -198 c2 -278
13 -456 39 -610 12 -73 18 -135 13 -138 -4 -3 -8 4 -8 15 0 11 -5 30 -10 43
-14 33 -49 199 -60 288 -23 183 -41 345 -51 473 -8 90 -17 141 -26 148 -17 15
-17 59 1 59 23 0 27 118 20 650 -3 278 -6 1603 -8 2944 -1 1902 -4 2440 -14
2444 -7 2 -12 21 -12 42 0 34 9 47 76 119 73 78 223 201 244 201 5 0 10 5 10
10 0 6 6 10 14 10 8 0 21 6 28 13 7 7 33 23 58 36 25 13 47 26 50 30 8 10 214
111 228 111 6 0 12 4 12 9 0 5 14 13 32 16 18 4 39 11 48 16 36 20 110 49 124
49 8 0 17 4 20 9 4 5 24 12 46 16 22 4 42 10 45 15 3 5 23 11 45 15 22 4 42
10 45 15 3 4 20 11 39 14 20 4 48 13 63 21 15 8 38 15 50 15 12 0 24 4 27 9 4
5 24 12 46 16 22 4 42 10 45 15 3 4 22 11 42 15 21 4 43 10 48 15 6 4 33 11
60 15 28 4 55 10 60 15 6 4 33 11 60 15 28 4 55 10 60 15 6 4 33 11 60 15 28
4 55 10 60 13 6 4 37 12 70 19 33 6 96 19 140 28 44 9 109 22 145 30 36 7 101
20 145 30 44 9 116 23 160 32 69 12 125 20 340 49 50 6 211 30 330 49 202 32
664 76 781 74 39 -1 87 4 105 10 31 10 208 20 709 41 221 9 850 3 1035 -10z
m-1795 -951 c0 -7 -12 -9 -34 -5 -19 4 -36 3 -38 -2 -4 -11 -138 -116 -138
-108 0 3 32 32 72 66 56 47 79 60 105 60 18 0 33 -5 33 -11z m-4965 -280 l88
-226 141 -6 c77 -4 201 -7 274 -7 72 0 132 -3 132 -7 0 -5 -91 -80 -201 -168
-110 -88 -205 -165 -209 -171 -6 -6 17 -111 59 -270 38 -142 68 -260 67 -262
-2 -1 -38 22 -82 50 -44 29 -111 73 -149 98 -73 47 -89 58 -134 101 l-27 26
26 31 c15 18 31 32 37 32 6 0 16 7 23 15 12 14 16 13 38 -7 29 -26 9 5 -107
171 l-66 94 -5 -164 -5 -164 -215 -138 c-128 -82 -216 -132 -218 -125 -1 7 27
125 62 261 l63 248 -28 31 c-16 16 -29 27 -29 23 0 -3 -12 7 -26 22 -14 15
-22 21 -18 13 3 -8 -7 1 -24 20 -17 19 -31 31 -32 27 -1 -20 -58 62 -62 89 -4
28 -2 30 21 26 48 -9 16 7 -79 39 -165 54 -165 58 -10 59 74 0 198 3 275 6
l140 6 39 -56 c45 -63 58 -74 27 -20 -27 46 -27 121 -1 203 12 34 18 67 14 73
-5 7 -3 8 6 3 10 -6 12 -4 7 8 -3 10 -3 17 2 17 5 0 9 12 9 26 0 15 5 30 12
34 6 4 11 11 10 16 -5 18 55 173 61 161 4 -7 46 -114 94 -238z m12210 0 l88
-226 141 -6 c77 -4 201 -7 274 -7 72 0 132 -3 132 -7 0 -5 -91 -80 -201 -168
-110 -88 -205 -165 -209 -171 -6 -6 17 -111 59 -270 38 -142 68 -260 67 -262
-2 -1 -38 22 -82 50 -44 29 -111 73 -149 98 -73 47 -89 58 -134 101 l-27 26
26 31 c15 18 31 32 37 32 6 0 16 7 23 15 12 14 16 13 38 -7 29 -26 9 5 -107
171 l-66 94 -5 -164 -5 -164 -215 -138 c-128 -82 -216 -132 -218 -125 -1 7 27
125 62 261 l63 248 -28 31 c-16 16 -29 27 -29 23 0 -3 -12 7 -26 22 -14 15
-22 21 -18 13 3 -8 -7 1 -24 20 -17 19 -31 31 -32 27 -1 -20 -58 62 -62 89 -4
28 -2 30 21 26 48 -9 16 7 -79 39 -165 54 -165 58 -10 59 74 0 198 3 275 6
l140 6 39 -56 c45 -63 58 -74 27 -20 -27 46 -27 121 -1 203 12 34 18 67 14 73
-5 7 -3 8 6 3 10 -6 12 -4 7 8 -3 10 -3 17 2 17 5 0 9 12 9 26 0 15 5 30 12
34 6 4 11 11 10 16 -5 18 55 173 61 161 4 -7 46 -114 94 -238z m-8017 134
c-16 -2 -40 -2 -55 0 -16 2 -3 4 27 4 30 0 43 -2 28 -4z m4842 -89 c0 -9 -17
-39 -37 -68 -48 -66 -53 -73 -53 -59 0 6 6 18 13 25 6 7 23 37 36 66 24 52 41
67 41 36z m160 -144 c0 -21 -36 -59 -90 -95 -47 -31 -135 -50 -180 -38 -34 9
-34 10 26 16 33 3 81 15 105 26 59 25 129 78 129 96 0 8 2 15 5 15 3 0 5 -9 5
-20z m-308 -85 c-9 -19 -24 -34 -32 -34 -10 0 -11 2 -2 6 6 2 12 10 12 16 0 9
29 47 36 47 2 0 -4 -16 -14 -35z m-3006 -125 c6 -6 21 -6 43 0 42 12 458 3
520 -11 25 -6 84 -13 131 -15 281 -12 466 -29 570 -53 25 -5 74 -13 110 -17
36 -3 85 -10 110 -15 25 -5 81 -16 125 -24 44 -7 130 -26 190 -40 61 -15 128
-31 150 -36 22 -5 78 -30 125 -54 47 -24 120 -61 162 -82 75 -36 101 -64 78
-87 -6 -6 -11 -19 -11 -31 -1 -16 -2 -17 -6 -2 -3 12 -15 17 -44 17 -21 0 -39
-4 -39 -10 0 -5 4 -10 8 -10 5 0 17 -6 28 -14 18 -14 17 -15 -16 -14 -49 1
-61 13 -54 57 6 36 4 38 -34 55 -46 21 -62 16 -62 -19 0 -13 -5 -27 -11 -31
-9 -5 -10 1 -5 20 5 21 3 26 -13 26 -11 0 -21 6 -24 13 -2 6 -2 -1 1 -17 4
-30 -3 -30 -40 2 -12 10 -28 13 -48 8 -22 -4 -29 -2 -24 6 4 7 3 8 -4 4 -6 -4
-21 -2 -32 4 -12 6 -34 12 -51 12 -16 1 -29 4 -29 7 0 12 -59 29 -80 24 -10
-3 -26 2 -35 10 -25 25 -124 50 -141 36 -8 -6 -13 -19 -12 -28 2 -10 -3 -15
-12 -12 -8 1 -31 4 -50 6 -19 1 -53 5 -75 9 -22 3 -33 3 -25 0 8 -3 24 -9 35
-14 11 -5 65 -23 120 -41 351 -112 395 -129 740 -300 211 -104 290 -153 450
-277 137 -106 398 -335 419 -367 16 -24 15 -25 -17 -39 -19 -7 -47 -17 -63
-20 -26 -6 -31 -3 -46 31 -9 21 -25 49 -36 63 -60 74 -113 130 -161 170 -29
25 -64 55 -78 68 -13 12 -27 22 -31 23 -4 0 -34 20 -67 44 -33 25 -73 52 -90
61 -16 9 -32 20 -35 24 -3 3 -34 24 -70 45 -36 21 -78 49 -95 61 -44 32 -248
135 -415 209 -214 94 -395 152 -610 194 -58 12 -136 28 -175 35 -158 32 -185
36 -290 46 -287 26 -519 32 -970 27 -258 -3 -519 -11 -580 -16 -60 -6 -197
-17 -304 -26 -107 -9 -199 -19 -205 -22 -5 -4 -45 -9 -89 -13 -44 -4 -82 -13
-87 -19 -5 -10 -9 -9 -13 3 -4 9 -11 16 -16 16 -6 0 -8 -7 -5 -15 4 -10 0 -15
-15 -15 -12 0 -21 6 -21 15 0 8 -3 15 -7 15 -5 0 -19 3 -33 6 l-25 5 25 -15
25 -15 -38 -1 c-24 0 -40 -5 -43 -15 -4 -8 -14 -15 -23 -15 -9 0 -47 -16 -86
-35 -45 -22 -78 -32 -92 -28 -14 3 -23 1 -23 -6 0 -11 -31 -27 -66 -33 -11 -2
-21 -6 -24 -9 -3 -4 -57 -28 -120 -54 -125 -51 -612 -295 -675 -338 -22 -15
-45 -27 -52 -27 -6 0 -18 -6 -25 -13 -7 -7 -31 -22 -53 -33 l-40 -21 -6 -114
-5 -114 -2 114 c-2 94 1 118 15 133 9 10 22 18 30 18 14 0 76 39 81 53 2 4 10
7 18 7 8 0 14 5 14 10 0 12 -3 12 -32 1 -48 -19 -63 -24 -71 -22 -5 1 -6 -3
-2 -9 3 -6 -4 -9 -17 -8 -34 2 -130 -31 -155 -55 l-23 -20 0 -2306 c0 -2389
-8 -4089 -20 -4055 -4 10 -11 379 -15 819 -4 440 -9 838 -10 885 -8 192 -16
295 -25 304 -4 4 -6 15 -3 22 3 8 0 21 -6 28 -8 9 -8 16 -2 20 10 7 8 57 -3
75 -4 5 -2 13 4 16 8 5 8 11 0 20 -7 8 -9 23 -5 35 4 12 2 20 -5 20 -6 0 -8
10 -4 25 4 18 1 27 -10 31 -13 5 -14 9 -4 21 10 13 8 18 -9 33 -22 18 -25 46
-8 84 6 13 5 21 -3 24 -19 6 -14 22 8 22 23 0 27 15 5 24 -15 6 -10 35 9 48
13 9 18 306 5 330 -7 12 -5 19 8 27 17 9 17 11 -2 28 -14 12 -20 31 -20 58 0
35 -3 40 -21 37 -15 -2 -23 4 -28 20 -9 37 -7 51 15 78 19 22 22 23 30 7 6 -9
14 -17 19 -17 15 0 12 27 -4 33 -9 4 -12 14 -9 26 4 15 1 21 -12 21 -15 0 -17
7 -11 50 4 30 3 50 -3 50 -5 0 -12 -6 -14 -12 -4 -8 -6 -7 -6 4 -1 9 5 18 12
21 8 3 4 12 -13 28 -20 20 -22 24 -8 27 10 2 15 9 11 18 -3 9 2 14 13 15 17 1
17 2 2 6 -10 2 -18 8 -19 11 0 4 -3 18 -5 31 -3 16 1 28 11 33 17 10 21 38 5
38 -14 0 -12 27 3 34 8 3 6 9 -7 20 -17 14 -18 19 -7 39 10 18 10 34 2 62 -9
33 -8 40 9 55 24 21 26 34 4 26 -22 -8 -40 4 -23 15 11 8 10 12 -5 24 -19 14
-18 15 5 24 18 8 20 10 6 10 -26 1 -18 33 11 46 12 5 22 13 22 17 0 4 6 5 14
2 11 -4 13 3 9 38 -3 24 -11 48 -18 53 -6 6 -14 32 -17 60 -4 27 -11 51 -17
53 -6 2 -11 12 -11 22 0 11 -8 24 -17 29 -16 10 -16 11 5 17 18 5 20 9 11 20
-9 11 -8 19 6 34 17 19 17 20 0 26 -17 7 -17 8 1 21 14 10 15 16 6 25 -19 19
-14 28 16 29 22 1 23 2 5 6 -14 3 -20 9 -16 19 3 7 9 12 13 9 4 -3 13 2 19 9
13 16 -2 32 -19 21 -6 -4 -9 -3 -8 2 1 4 -2 18 -6 31 -11 34 -2 37 29 8 15
-14 33 -22 39 -19 7 5 5 9 -6 11 -21 4 -24 38 -5 45 9 4 8 8 -3 16 -12 8 -12
13 -2 23 16 16 15 28 -3 28 -8 0 -15 7 -15 15 0 8 9 15 20 15 27 0 25 14 -2
28 -22 10 -22 11 9 17 35 8 35 25 1 25 -17 0 -18 3 -8 15 6 8 9 23 5 35 -5 16
-2 20 15 20 20 0 20 1 6 16 -17 16 -17 67 -2 93 5 7 1 17 -9 25 -17 12 -16 13
5 19 24 6 24 6 5 27 -19 21 -19 22 -2 32 17 9 17 11 2 28 -14 16 -14 18 0 23
18 7 20 34 4 39 -9 3 -9 10 0 26 6 12 8 22 3 22 -5 0 -8 28 -7 63 2 34 -2 67
-7 74 -5 7 -5 14 1 17 6 4 8 13 4 21 -3 9 0 22 7 30 10 11 10 18 1 29 -9 11
-9 15 0 18 8 3 7 14 -6 37 -14 28 -15 33 -2 28 20 -8 29 3 16 19 -6 8 -8 22
-4 31 12 28 12 127 0 136 -7 6 -6 10 3 14 17 7 15 24 -5 39 -17 13 -17 13 0
14 17 0 23 11 11 22 -10 11 -10 138 0 142 7 3 5 8 -3 14 -17 12 -22 90 -7 110
7 9 6 16 -3 22 -7 4 -9 10 -4 13 15 9 16 127 1 127 -10 0 -10 2 0 9 11 6 13
34 10 125 -4 92 -2 116 9 116 7 0 13 5 13 10 0 6 -7 10 -15 10 -24 0 -17 13
21 38 33 22 40 47 9 35 -8 -3 -15 0 -15 6 0 6 5 11 10 11 6 0 10 7 10 15 0 20
10 19 27 -2 13 -17 14 -16 10 4 -4 20 -2 22 18 17 16 -4 24 -1 27 14 4 13 18
22 42 26 20 4 36 11 36 17 0 6 8 9 18 7 9 -1 31 2 47 9 17 6 45 15 63 19 19 5
33 13 32 18 -1 5 4 13 12 17 10 7 10 9 1 9 -7 0 -13 7 -13 15 0 14 37 34 118
65 18 7 39 22 47 32 7 11 18 18 23 14 10 -6 82 12 82 21 0 3 -8 12 -17 19 -17
13 -17 13 0 14 9 0 17 -5 17 -11 0 -6 7 -8 17 -5 9 4 19 2 23 -3 3 -6 16 -8
28 -4 l23 6 -28 30 -28 30 42 -6 c47 -6 58 0 42 19 -15 18 6 26 55 21 26 -3
39 0 43 10 4 10 18 13 46 11 34 -2 41 1 48 20 5 13 17 22 29 22 11 0 20 5 20
10 0 14 47 13 56 -1 4 -8 9 -7 15 2 5 8 3 16 -4 21 -16 10 -8 14 35 22 33 6
40 3 69 -28 17 -20 36 -33 40 -30 11 6 -44 64 -60 64 -6 0 -11 5 -11 10 0 13
37 13 45 0 3 -5 15 -15 26 -20 31 -17 24 12 -8 33 l-28 17 30 -6 c17 -4 33
-12 36 -17 13 -19 39 2 39 30 1 25 2 26 14 11 20 -27 39 -23 34 7 -6 29 7 43
16 19 5 -14 9 -14 23 -3 8 8 27 12 41 10 22 -2 24 -1 14 12 -17 20 1 31 27 17
26 -14 31 -13 31 6 0 10 6 13 19 9 12 -3 21 0 25 10 3 9 11 15 18 14 7 -1 22
2 32 6 13 5 21 5 23 -2 4 -12 63 13 63 27 0 8 85 25 108 21 7 -1 15 5 18 14 8
20 84 57 123 60 15 1 32 4 37 7 5 3 77 7 159 8 83 1 166 4 185 6 34 4 47 5 73
3 6 0 80 2 162 5 157 5 236 13 245 27 3 5 48 10 100 13 52 3 109 9 125 15 40
12 40 12 51 1z m2149 -430 c-4 -12 -9 -19 -12 -17 -3 3 -2 15 2 27 4 12 9 19
12 17 3 -3 2 -15 -2 -27z m3002 -197 c6 -325 7 -425 3 -1288 -2 -445 -7 -787
-11 -760 -9 60 -12 2271 -3 2262 4 -3 8 -100 11 -214z m-6437 189 l-25 -5 25
-6 c21 -6 18 -9 -25 -23 -109 -37 -121 -41 -266 -97 -59 -23 -109 -41 -112
-41 -3 0 -36 -14 -74 -31 -187 -85 -282 -137 -262 -143 8 -2 79 -7 158 -9 105
-4 146 -9 152 -19 5 -7 10 -74 11 -148 l1 -135 6 137 c3 75 8 138 11 141 14
12 324 67 380 67 62 0 290 27 585 70 107 15 233 22 531 30 579 14 988 -2 1263
-50 31 -5 88 -14 126 -21 63 -11 169 -36 310 -74 226 -61 337 -110 514 -224
52 -33 98 -58 102 -55 21 13 301 -209 426 -338 87 -90 273 -317 333 -407 91
-136 193 -362 289 -644 66 -192 90 -312 111 -537 16 -175 27 -510 19 -540 -10
-34 -17 -286 -9 -300 4 -7 1 -29 -6 -51 -8 -21 -18 -71 -24 -111 -25 -173 -90
-403 -151 -536 -16 -35 -29 -70 -29 -77 0 -8 -13 -37 -30 -65 -16 -28 -30 -53
-30 -56 0 -3 -8 -24 -19 -47 -10 -23 -22 -58 -26 -77 -4 -19 -22 -51 -40 -70
-18 -19 -58 -73 -88 -120 -92 -142 -156 -222 -305 -379 -133 -140 -238 -229
-387 -328 -97 -65 -189 -120 -216 -128 -22 -7 -23 -6 -10 9 8 10 27 24 43 32
16 8 26 19 23 24 -4 6 3 10 15 10 12 0 19 4 16 9 -7 11 20 35 32 27 5 -3 8 5
8 17 -1 16 4 21 19 20 11 -1 14 0 8 3 -7 3 -13 21 -13 39 0 18 6 35 13 38 7 3
2 9 -13 15 -14 6 -19 11 -11 11 8 1 11 7 7 16 -4 10 2 19 16 24 21 8 21 8 -4
14 -17 5 -39 -1 -69 -17 -88 -47 -145 -79 -171 -98 -36 -25 -173 -88 -191 -88
-8 0 -75 -20 -148 -44 -153 -50 -251 -78 -359 -101 -41 -10 -88 -21 -105 -26
-61 -17 -242 -45 -444 -68 -67 -8 -68 -7 -112 46 -12 16 -24 23 -26 17 -2 -6
-34 -54 -70 -105 -114 -162 -158 -243 -183 -334 -13 -51 -50 -345 -50 -407 l0
-47 82 -3 c54 -2 83 -7 86 -15 3 -10 -19 -13 -86 -13 l-90 0 -1 -70 c-1 -64 9
-90 22 -57 4 9 8 9 15 -1 7 -11 11 -8 14 12 3 15 1 26 -5 26 -7 0 -7 4 0 11
14 14 67 3 58 -11 -13 -20 28 -9 46 13 18 22 18 20 19 -133 1 -85 3 -277 6
-426 3 -159 2 -274 -4 -278 -5 -3 -29 13 -53 34 -24 22 -52 42 -61 45 -10 4
-18 10 -18 15 0 4 -9 10 -20 13 -16 4 -14 -2 12 -28 18 -18 53 -50 78 -70 42
-35 80 -81 80 -97 0 -12 -20 -9 -34 5 -18 17 -84 69 -112 87 -12 8 -49 36 -81
62 -78 61 -199 128 -190 105 8 -21 -1 -22 -23 -2 -13 12 -30 13 -101 5 -46 -6
-102 -15 -124 -21 -185 -49 -902 -68 -1287 -34 -67 6 -77 5 -86 -11 -9 -16
-11 -16 -26 -2 -18 18 -137 32 -283 33 -51 0 -93 3 -93 6 0 6 -79 14 -240 24
-39 2 -52 1 -32 -3 l33 -7 -93 -80 c-51 -44 -112 -99 -134 -122 -72 -75 -74
-72 -74 155 0 109 3 201 6 204 3 3 4 199 3 434 -7 1267 -7 1245 16 1254 20 9
20 9 -1 9 -38 1 -45 23 -42 127 l3 99 135 7 c74 4 199 8 278 9 l142 2 0 91 c0
50 -3 108 -6 129 l-7 37 -28 -38 c-15 -21 -39 -44 -54 -52 -45 -24 -54 -3 -64
160 -11 176 -9 2257 2 2286 6 15 15 20 32 17 12 -3 26 0 30 7 12 20 -5 273
-20 294 -9 12 -53 29 -117 47 -57 15 -128 35 -158 44 -30 9 -67 19 -82 22 -15
3 -32 11 -37 17 -7 8 -11 271 -13 723 -3 757 -2 738 -51 745 -19 3 -16 7 23
34 139 97 552 293 780 371 25 8 63 23 85 33 114 51 427 139 490 138 27 -1 28
-1 5 -6z m3645 -22 c-3 -5 -10 -10 -16 -10 -5 0 -9 5 -9 10 0 6 7 10 16 10 8
0 12 -4 9 -10z m123 -28 c4 -14 -34 -16 -42 -3 -6 10 13 21 28 17 6 -1 12 -8
14 -14z m-27 -37 c-1 -15 -24 -12 -29 3 -3 9 2 13 12 10 10 -1 17 -7 17 -13z
m999 -265 c0 -147 -4 -230 -10 -230 -6 0 -10 76 -10 208 0 186 4 252 16 252 2
0 4 -103 4 -230z m-913 158 c-3 -8 -6 -5 -6 6 -1 11 2 17 5 13 3 -3 4 -12 1
-19z m34 -61 c-8 -8 -11 -7 -11 4 0 9 3 19 7 23 4 4 9 2 11 -4 3 -7 -1 -17 -7
-23z m2401 -26 c-11 -6 -11 -17 -3 -47 12 -48 13 -274 1 -274 -16 0 -18 15
-21 161 -3 143 1 169 24 169 8 0 8 -3 -1 -9z m-7686 -28 c17 -22 17 -33 2 -33
-14 0 -48 30 -48 42 0 15 32 8 46 -9z m5684 -3 c0 -5 -4 -10 -10 -10 -5 0 -10
5 -10 10 0 6 5 10 10 10 6 0 10 -4 10 -10z m1960 -31 c0 -5 -4 -9 -10 -9 -5 0
-10 7 -10 16 0 8 5 12 10 9 6 -3 10 -10 10 -16z m-7690 1 c0 -5 -7 -10 -15
-10 -8 0 -15 5 -15 10 0 6 7 10 15 10 8 0 15 -4 15 -10z m5740 -22 c0 -23 -16
-16 -23 11 -3 14 -1 18 9 14 8 -3 14 -14 14 -25z m1954 -34 c11 -28 6 -38 -9
-18 -8 10 -15 22 -15 27 0 13 18 7 24 -9z m-1956 -6 c17 -17 15 -39 -8 -68
-16 -20 -20 -22 -20 -7 0 9 5 17 11 17 19 0 5 45 -16 48 -35 7 -41 22 -9 22
17 0 35 -5 42 -12z m47 -78 c3 -5 2 -10 -4 -10 -5 0 -13 5 -16 10 -3 6 -2 10
4 10 5 0 13 -4 16 -10z m1855 -11 c0 -6 -4 -7 -10 -4 -5 3 -10 11 -10 16 0 6
5 7 10 4 6 -3 10 -11 10 -16z m-1614 -13 c9 -9 10 -17 4 -21 -12 -7 -42 19
-33 29 9 9 13 8 29 -8z m-6296 -16 c0 -5 -7 -7 -15 -4 -8 4 -12 10 -9 15 6 11
24 2 24 -11z m6166 -4 c10 -8 30 -12 45 -9 16 3 30 -1 38 -11 11 -14 11 -16
-3 -16 -9 0 -16 5 -16 11 0 8 -4 8 -12 2 -7 -6 -21 -13 -32 -17 -13 -4 -17 -2
-13 8 6 16 -21 30 -60 31 -37 1 -39 15 -2 15 20 0 44 -6 55 -14z m182 -4 c2
-7 -2 -10 -12 -6 -9 3 -16 11 -16 16 0 13 23 5 28 -10z m13 -32 c16 0 29 -7
33 -16 6 -15 8 -15 25 0 18 17 20 16 31 -18 14 -44 72 -96 108 -97 28 0 77
-17 55 -18 -39 -2 30 -61 71 -61 24 0 80 -82 82 -120 3 -78 -61 -145 -135
-142 -46 2 -76 35 -85 94 -6 40 -4 50 13 67 12 12 29 21 39 22 13 0 12 3 -6
11 -62 30 -87 -99 -35 -179 15 -22 35 -29 106 -38 34 -4 43 -1 73 30 18 19 36
46 40 60 6 23 24 36 24 16 0 -18 -31 -81 -40 -81 -5 0 -7 -7 -4 -15 4 -9 0
-15 -8 -15 -10 0 -14 -10 -12 -36 2 -22 -3 -42 -11 -51 -9 -8 -13 -18 -10 -23
12 -19 -17 -20 -59 0 -50 22 -65 38 -47 50 9 5 8 11 -4 24 -19 19 -35 21 -35
4 0 -6 -8 -3 -18 8 -10 10 -19 24 -19 30 0 6 -10 28 -23 49 -21 33 -25 36 -31
19 -5 -16 -8 -13 -17 16 -6 19 -11 27 -11 18 -1 -22 -10 -22 -35 -3 -16 12
-17 18 -8 27 19 19 14 38 -9 38 -13 0 -18 -4 -13 -12 4 -7 3 -8 -4 -4 -9 5 -9
13 -1 27 6 12 7 24 3 27 -4 4 -9 2 -11 -5 -9 -24 -29 10 -25 40 4 27 2 29 -17
24 -25 -6 -27 9 -4 35 9 10 11 18 5 18 -6 0 -14 -4 -17 -10 -11 -17 -35 -11
-35 9 0 23 17 38 50 43 19 2 24 8 22 26 -2 15 2 22 12 22 23 0 20 21 -4 27
-26 7 -26 23 -1 23 11 0 22 4 26 9 8 15 -14 24 -29 12 -9 -7 -16 -7 -24 1 -6
6 -15 8 -19 3 -5 -4 -2 -10 6 -13 11 -4 11 -6 0 -13 -11 -6 -11 -11 -1 -21 20
-20 14 -47 -12 -54 -16 -4 -23 -11 -19 -20 3 -9 -2 -14 -16 -14 -31 0 -39 29
-14 49 11 9 28 28 38 43 l17 28 -31 -6 c-24 -5 -31 -3 -31 9 0 27 54 53 75 35
5 -4 21 -8 36 -8z m-241 0 c0 -5 -2 -10 -4 -10 -3 0 -8 5 -11 10 -3 6 -1 10 4
10 6 0 11 -4 11 -10z m115 -30 c3 -5 2 -10 -4 -10 -5 0 -13 5 -16 10 -3 6 -2
10 4 10 5 0 13 -4 16 -10z m-45 -10 c0 -5 -5 -10 -11 -10 -5 0 -7 5 -4 10 3 6
8 10 11 10 2 0 4 -4 4 -10z m1813 -40 c-3 -11 -10 -20 -15 -20 -6 0 -7 7 -4
16 3 9 6 20 6 25 0 6 4 8 9 5 5 -3 7 -15 4 -26z m-1753 9 c0 -5 -9 -18 -20
-29 -16 -16 -20 -17 -20 -5 0 8 -7 15 -15 15 -32 0 -13 25 20 27 19 1 35 -3
35 -8z m1660 -55 c0 -2 -9 -4 -20 -4 -11 0 -20 4 -20 9 0 5 9 7 20 4 11 -3 20
-7 20 -9z m-160 -57 c8 -3 0 -6 -17 -6 -23 -1 -33 4 -33 14 0 12 5 13 18 7 9
-5 24 -12 32 -15z m-1063 -3 c-3 -3 -12 -4 -19 -1 -8 3 -5 6 6 6 11 1 17 -2
13 -5z m728 -108 c2 -20 -1 -39 -6 -42 -5 -3 -9 16 -9 42 0 54 10 54 15 0z
m-251 -109 c24 -23 52 -48 62 -55 11 -7 -9 1 -43 19 -34 17 -66 28 -71 25 -15
-9 -22 32 -15 83 l7 46 8 -38 c5 -25 22 -52 52 -80z m283 61 c-3 -8 -6 -5 -6
6 -1 11 2 17 5 13 3 -3 4 -12 1 -19z m392 -40 c9 -15 8 -23 -5 -41 l-16 -22 5
24 c4 16 -1 35 -15 54 -20 28 -20 28 -1 16 11 -6 25 -20 32 -31z m-72 -40 c-3
-8 -6 -5 -6 6 -1 11 2 17 5 13 3 -3 4 -12 1 -19z m168 2 c3 -5 1 -10 -4 -10
-6 0 -11 5 -11 10 0 6 2 10 4 10 3 0 8 -4 11 -10z m-47 -22 c12 -15 33 -90 27
-96 -2 -2 -10 12 -18 31 -8 19 -20 38 -26 41 -17 11 -25 -22 -11 -39 7 -9 9
-19 5 -23 -4 -4 -10 -1 -12 6 -6 15 -33 16 -33 2 0 -6 7 -13 16 -17 11 -4 14
-14 10 -37 -3 -17 -6 -105 -7 -196 -1 -156 -14 -400 -17 -334 -4 61 -25 144
-38 144 -18 0 -40 70 -24 80 7 4 9 20 6 41 -15 89 -15 87 5 82 20 -6 27 11 9
22 -15 9 -12 25 4 25 26 0 44 150 22 178 -7 10 -5 16 5 22 11 8 12 13 2 30
-19 30 -16 46 5 27 24 -22 29 -21 35 3 6 23 20 26 35 8z m-1374 -24 c9 -22 -3
-32 -14 -14 -12 19 -12 30 -1 30 5 0 12 -7 15 -16z m-10179 -295 l88 -226 141
-6 c77 -4 201 -7 274 -7 72 0 132 -3 132 -7 0 -5 -91 -80 -201 -168 -110 -88
-205 -165 -209 -171 -6 -6 17 -111 59 -270 38 -142 68 -260 67 -262 -2 -1 -38
22 -82 50 -44 29 -111 73 -149 98 -73 47 -89 58 -134 101 l-27 26 26 31 c15
18 31 32 37 32 6 0 16 7 23 15 12 14 16 13 38 -7 29 -26 9 5 -107 171 l-66 94
-5 -164 -5 -164 -215 -138 c-128 -82 -216 -132 -218 -125 -1 7 27 125 62 261
l63 248 -28 31 c-16 16 -29 27 -29 23 0 -3 -12 7 -26 22 -14 15 -22 21 -18 13
3 -8 -7 1 -24 20 -17 19 -31 31 -32 27 -1 -20 -58 62 -62 89 -4 28 -2 30 21
26 48 -9 16 7 -79 39 -165 54 -165 58 -10 59 74 0 198 3 275 6 l140 6 39 -56
c45 -63 58 -74 27 -20 -27 46 -27 121 -1 203 12 34 18 67 14 73 -5 7 -3 8 6 3
10 -6 12 -4 7 8 -3 10 -3 17 2 17 5 0 9 12 9 26 0 15 5 30 12 34 6 4 11 11 10
16 -5 18 55 173 61 161 4 -7 46 -114 94 -238z m13800 0 l88 -226 141 -6 c77
-4 201 -7 274 -7 72 0 132 -3 132 -7 0 -5 -91 -80 -201 -168 -110 -88 -205
-165 -209 -171 -6 -6 17 -111 59 -270 38 -142 68 -260 67 -262 -2 -1 -38 22
-82 50 -44 29 -111 73 -149 98 -73 47 -89 58 -134 101 l-27 26 26 31 c15 18
31 32 37 32 6 0 16 7 23 15 12 14 16 13 38 -7 29 -26 9 5 -107 171 l-66 94 -5
-164 -5 -164 -215 -138 c-128 -82 -216 -132 -218 -125 -1 7 27 125 62 261 l63
248 -28 31 c-16 16 -29 27 -29 23 0 -3 -12 7 -26 22 -14 15 -22 21 -18 13 3
-8 -7 1 -24 20 -17 19 -31 31 -32 27 -1 -20 -58 62 -62 89 -4 28 -2 30 21 26
48 -9 16 7 -79 39 -165 54 -165 58 -10 59 74 0 198 3 275 6 l140 6 39 -56 c45
-63 58 -74 27 -20 -27 46 -27 121 -1 203 12 34 18 67 14 73 -5 7 -3 8 6 3 10
-6 12 -4 7 8 -3 10 -3 17 2 17 5 0 9 12 9 26 0 15 5 30 12 34 6 4 11 11 10 16
-5 18 55 173 61 161 4 -7 46 -114 94 -238z m-3550 202 c-3 -6 -11 -11 -17 -11
-6 0 -6 6 2 15 14 17 26 13 15 -4z m1055 4 c0 -8 -4 -15 -10 -15 -5 0 -10 7
-10 15 0 8 5 15 10 15 6 0 10 -7 10 -15z m250 -9 c0 -3 -4 -8 -10 -11 -5 -3
-10 -1 -10 4 0 6 5 11 10 11 6 0 10 -2 10 -4z m-33 -58 c-3 -8 -6 -5 -6 6 -1
11 2 17 5 13 3 -3 4 -12 1 -19z m-262 -69 c0 -16 -3 -29 -7 -29 -5 0 -8 17 -8
37 0 20 3 33 8 29 4 -4 7 -21 7 -37z m139 -158 c-9 -10 -26 18 -18 30 5 9 9 8
14 -7 4 -10 6 -21 4 -23z m-567 -121 c-14 -11 -31 -20 -39 -20 -17 1 33 39 51
40 8 0 3 -9 -12 -20z m-6878 -840 c-5 -8 -8 59 -7 150 l1 165 7 -150 c4 -82 3
-157 -1 -165z m7888 13 c-3 -10 -5 -4 -5 12 0 17 2 24 5 18 2 -7 2 -21 0 -30z
m-197 -115 c93 -87 113 -116 41 -58 -20 17 -62 53 -91 80 -30 28 -57 50 -61
50 -11 0 -19 -41 -20 -105 l-1 -60 -10 60 c-11 77 3 138 31 127 10 -4 60 -46
111 -94z m82 77 c10 -11 -20 -80 -36 -83 -14 -3 -14 1 -6 24 6 15 9 33 6 40
-7 19 21 34 36 19z m-7743 -290 c11 -79 33 -889 30 -1120 -2 -190 -20 -475
-33 -529 l-13 -49 -7 109 c-10 166 -19 1816 -9 1839 5 14 10 -10 15 -75 3 -52
11 -131 17 -175z m-436 128 c-7 -2 -19 -2 -25 0 -7 3 -2 5 12 5 14 0 19 -2 13
-5z m8313 -767 c4 -736 -11 -1956 -25 -2076 l-7 -65 -4 65 c-9 128 -5 2815 4
2834 9 18 10 18 19 -5 6 -14 11 -317 13 -753z m-349 652 c-3 -7 -5 -2 -5 12 0
14 2 19 5 13 2 -7 2 -19 0 -25z m-80 -141 c-40 -45 -83 -93 -95 -107 -11 -14
-30 -36 -42 -50 -12 -14 -28 -38 -36 -53 -8 -15 -19 -25 -24 -22 -19 12 7 49
115 162 28 29 70 77 95 107 25 29 49 51 53 49 4 -3 -25 -41 -66 -86z m240 -69
c-2 -13 -4 -3 -4 22 0 25 2 35 4 23 2 -13 2 -33 0 -45z m-80 -58 c-2 -48 -5
-60 -17 -57 -9 1 -14 11 -12 22 2 11 6 37 9 58 8 59 21 43 20 -23z m33 46 c0
-3 -4 -8 -10 -11 -5 -3 -10 -1 -10 4 0 6 5 11 10 11 6 0 10 -2 10 -4z m4 -61
c-7 -16 -24 -21 -24 -6 0 8 7 13 27 20 1 1 0 -6 -3 -14z m39 -143 c-2 -185 -1
-184 -14 -153 -5 13 -7 32 -4 42 4 13 1 19 -9 19 -12 0 -14 -10 -11 -50 2 -27
-1 -50 -6 -50 -10 0 -10 0 -14 55 -1 22 1 48 6 57 6 10 5 18 -3 20 -8 3 -7 12
6 29 l17 24 -3 -25 c-2 -14 1 -27 5 -30 4 -3 10 42 13 99 4 90 9 121 17 121 1
0 1 -71 0 -158z m-98 25 c-10 -23 -22 -53 -27 -67 -6 -14 -17 -37 -25 -52 -13
-26 -13 -28 6 -28 12 0 21 -4 21 -10 0 -5 -4 -10 -10 -10 -5 0 -7 -7 -4 -15 4
-10 0 -15 -11 -15 -12 0 -15 -5 -9 -22 3 -13 13 -27 20 -31 8 -4 14 -13 14
-18 0 -6 -17 6 -37 25 -21 19 -40 33 -42 30 -3 -3 1 -9 8 -13 9 -6 10 -11 2
-15 -6 -4 -16 -4 -21 -1 -6 4 -20 -5 -32 -20 -11 -15 -54 -65 -94 -113 -41
-47 -74 -94 -74 -104 0 -10 -7 -18 -15 -18 -17 0 -20 16 -5 25 5 3 7 11 4 18
-3 8 10 29 28 48 59 61 138 154 138 162 0 4 13 25 29 47 15 21 41 65 56 97 15
32 36 75 46 96 14 28 16 44 9 63 -14 37 -13 38 16 9 l26 -26 -17 -42z m52 41
c-3 -8 -6 -5 -6 6 -1 11 2 17 5 13 3 -3 4 -12 1 -19z m-87 -8 c0 -5 -4 -10
-10 -10 -5 0 -10 5 -10 10 0 6 5 10 10 10 6 0 10 -4 10 -10z m44 -149 c-26
-30 -42 -27 -36 7 6 34 23 45 40 28 12 -11 11 -17 -4 -35z m16 -41 c9 -16 8
-20 -5 -20 -8 0 -15 9 -15 20 0 11 2 20 5 20 2 0 9 -9 15 -20z m2325 -291 l88
-226 141 -6 c77 -4 201 -7 274 -7 72 0 132 -3 132 -7 0 -5 -91 -80 -201 -168
-110 -88 -205 -165 -209 -171 -6 -6 17 -111 59 -270 38 -142 68 -260 67 -262
-2 -1 -38 22 -82 50 -44 29 -111 73 -149 98 -73 47 -89 58 -134 101 l-27 26
26 31 c15 18 31 32 37 32 6 0 16 7 23 15 12 14 16 13 38 -7 29 -26 9 5 -107
171 l-66 94 -5 -164 -5 -164 -215 -138 c-128 -82 -216 -132 -218 -125 -1 7 27
125 62 261 l63 248 -28 31 c-16 16 -29 27 -29 23 0 -3 -12 7 -26 22 -14 15
-22 21 -18 13 3 -8 -7 1 -24 20 -17 19 -31 31 -32 27 -1 -20 -58 62 -62 89 -4
28 -2 30 21 26 48 -9 16 7 -79 39 -165 54 -165 58 -10 59 74 0 198 3 275 6
l140 6 39 -56 c45 -63 58 -74 27 -20 -27 46 -27 121 -1 203 12 34 18 67 14 73
-5 7 -3 8 6 3 10 -6 12 -4 7 8 -3 10 -3 17 2 17 5 0 9 12 9 26 0 15 5 30 12
34 6 4 11 11 10 16 -5 18 55 173 61 161 4 -7 46 -114 94 -238z m-13990 -20
l88 -226 141 -6 c77 -4 201 -7 274 -7 72 0 132 -3 132 -7 0 -5 -91 -80 -201
-168 -110 -88 -205 -165 -209 -171 -6 -6 17 -111 59 -270 38 -142 68 -260 67
-262 -2 -1 -38 22 -82 50 -44 29 -111 73 -149 98 -73 47 -89 58 -134 101 l-27
26 26 31 c15 18 31 32 37 32 6 0 16 7 23 15 12 14 16 13 38 -7 29 -26 9 5
-107 171 l-66 94 -5 -164 -5 -164 -215 -138 c-128 -82 -216 -132 -218 -125 -1
7 27 125 62 261 l63 248 -28 31 c-16 16 -29 27 -29 23 0 -3 -12 7 -26 22 -14
15 -22 21 -18 13 3 -8 -7 1 -24 20 -17 19 -31 31 -32 27 -1 -20 -58 62 -62 89
-4 28 -2 30 21 26 48 -9 16 7 -79 39 -165 54 -165 58 -10 59 74 0 198 3 275 6
l140 6 39 -56 c45 -63 58 -74 27 -20 -27 46 -27 121 -1 203 12 34 18 67 14 73
-5 7 -3 8 6 3 10 -6 12 -4 7 8 -3 10 -3 17 2 17 5 0 9 12 9 26 0 15 5 30 12
34 6 4 11 11 10 16 -5 18 55 173 61 161 4 -7 46 -114 94 -238z m11645 241 c0
-5 -2 -10 -4 -10 -3 0 -8 5 -11 10 -3 6 -1 10 4 10 6 0 11 -4 11 -10z m50 -11
c0 -14 -17 -10 -23 5 -4 10 -1 13 9 9 7 -3 14 -9 14 -14z m37 -21 c-3 -7 -5
-2 -5 12 0 14 2 19 5 13 2 -7 2 -19 0 -25z m-147 -20 c0 -6 -7 -5 -15 2 -8 7
-15 17 -15 22 0 6 7 5 15 -2 8 -7 15 -17 15 -22z m90 16 c0 -2 -7 -4 -15 -4
-8 0 -15 4 -15 10 0 5 7 7 15 4 8 -4 15 -8 15 -10z m30 -24 c0 -11 -7 -20 -15
-20 -18 0 -19 6 -2 25 16 19 17 18 17 -5z m-144 -4 c8 -8 14 -31 14 -51 0 -22
4 -34 10 -30 6 4 10 12 9 18 -1 7 1 25 6 41 6 24 9 26 17 12 5 -9 6 -21 3 -26
-3 -6 3 -10 13 -10 24 0 36 -28 21 -46 -9 -11 -6 -14 15 -14 16 0 25 4 21 10
-3 6 -1 10 4 10 6 0 11 -7 11 -15 0 -10 -10 -15 -30 -15 -32 0 -37 -9 -18 -28
10 -10 10 -15 -2 -22 -8 -5 -12 -12 -8 -15 3 -4 -13 -26 -37 -50 -23 -25 -46
-52 -49 -61 -5 -14 -9 -15 -19 -5 -7 7 -8 14 -2 19 6 4 18 22 27 40 13 24 15
39 8 58 -5 13 -9 28 -8 32 2 4 -8 29 -22 55 -19 38 -21 50 -11 56 8 5 11 17 6
30 -7 24 0 27 21 7z m92 2 c7 -7 12 -16 12 -20 0 -15 -15 -8 -28 12 -13 22 -3
27 16 8z m79 -40 c-3 -7 -5 -2 -5 12 0 14 2 19 5 13 2 -7 2 -19 0 -25z m-27
-8 c0 -11 -7 -20 -15 -20 -8 0 -15 9 -15 20 0 11 7 20 15 20 8 0 15 -9 15 -20z
m37 -543 c2 -371 6 -538 14 -553 16 -30 -10 -76 -85 -148 -99 -95 -157 -139
-170 -126 -8 8 1 21 34 48 25 20 73 64 108 98 l62 62 0 61 0 61 -40 0 c-22 0
-40 5 -40 10 0 6 16 10 35 10 40 0 54 20 33 45 -7 9 -66 69 -130 135 -111 111
-123 127 -119 157 1 6 -7 14 -18 18 -11 3 -18 12 -15 19 3 7 -7 18 -21 24 -16
7 -23 17 -19 24 5 7 2 9 -7 6 -55 -21 -61 -21 -57 3 2 15 17 31 43 45 22 13
45 27 52 33 7 6 17 11 22 11 6 0 34 10 63 23 29 13 73 29 98 36 25 7 52 16 61
21 8 4 27 6 42 5 l27 -3 0 161 c1 89 2 173 4 187 2 14 4 33 4 43 1 9 5 17 10
17 4 0 8 -240 9 -533z m-37 454 c0 -12 -20 -25 -27 -18 -7 7 6 27 18 27 5 0 9
-4 9 -9z m-246 -43 c-9 -14 -22 -9 -27 11 -4 17 -2 18 13 8 10 -6 16 -15 14
-19z m69 -9 c-6 -6 -17 -8 -24 -3 -9 5 -8 9 7 14 23 9 31 3 17 -11z m177 11
c0 -5 -4 -10 -10 -10 -5 0 -10 5 -10 10 0 6 5 10 10 10 6 0 10 -4 10 -10z
m-285 -31 c12 -18 -3 -22 -20 -5 -14 14 -14 16 -1 16 8 0 18 -5 21 -11z m257
-14 c17 0 18 -15 0 -24 -22 -12 -32 -6 -32 21 0 13 4 17 13 11 6 -4 15 -8 19
-8z m-162 -10 c0 -24 -27 -29 -47 -10 -16 17 -16 17 4 11 12 -4 24 -2 28 4 9
14 15 12 15 -5z m155 -55 c4 -6 0 -22 -9 -35 -12 -19 -13 -24 -2 -28 8 -3 19
0 25 6 8 8 11 5 11 -10 0 -12 -4 -25 -10 -28 -5 -3 -10 -17 -10 -31 0 -14 -4
-22 -10 -19 -6 3 -7 17 -4 30 7 27 -11 42 -31 25 -10 -8 -15 -8 -20 0 -4 7 2
18 14 26 13 10 21 26 21 45 0 29 13 39 25 19z m-163 -32 c-7 -7 -12 -8 -12 -2
0 14 12 26 19 19 2 -3 -1 -11 -7 -17z m87 -33 c0 -5 -6 -1 -14 9 -8 10 -11 24
-8 29 6 10 21 -16 22 -38z m111 -45 c0 -5 -4 -10 -10 -10 -5 0 -10 5 -10 10 0
6 5 10 10 10 6 0 10 -4 10 -10z m-847 -141 c-23 -25 -39 -36 -42 -28 -4 12 55
69 72 69 4 0 -9 -18 -30 -41z m123 -161 c-19 -18 -49 -46 -67 -61 -19 -16 -46
-41 -61 -55 -17 -16 -28 -20 -28 -12 0 15 110 120 126 120 6 0 19 9 29 20 10
11 22 20 27 20 4 0 -7 -15 -26 -32z m587 -395 c-13 -2 -33 -2 -45 0 -13 2 -3
4 22 4 25 0 35 -2 23 -4z m177 -352 c0 -8 -199 -159 -238 -180 -42 -22 -22 7
35 50 82 63 187 137 196 138 4 1 7 -3 7 -8z m-1190 -487 c0 -21 -63 -84 -84
-84 -24 0 -19 21 15 63 31 38 69 50 69 21z m1185 -46 c7 -18 11 -37 8 -42 -3
-4 -9 -102 -14 -216 -10 -240 -31 -386 -89 -630 -35 -146 -138 -414 -223 -580
-60 -115 -220 -367 -285 -448 -34 -41 -149 -119 -160 -107 -3 2 37 49 89 102
52 54 122 139 155 188 54 79 197 346 231 430 56 139 106 285 137 397 20 73 41
147 46 163 5 17 12 55 15 85 4 30 11 69 15 85 5 17 11 82 14 145 3 63 8 175
12 248 l6 132 -68 1 c-38 0 -130 2 -205 5 l-136 6 -7 -169 c-4 -92 -11 -213
-16 -268 -5 -55 -7 -102 -5 -104 2 -2 21 10 42 26 50 40 260 163 276 163 7 0
17 4 23 9 5 5 24 12 41 16 28 5 32 4 27 -9 -3 -9 -13 -16 -21 -16 -37 0 -243
-122 -360 -214 -48 -38 -66 -59 -79 -95 -9 -25 -22 -62 -29 -81 -7 -19 -34
-93 -60 -165 -45 -124 -86 -211 -223 -478 -64 -123 -158 -251 -192 -260 -29
-7 -25 8 13 50 63 72 86 114 249 463 36 77 34 73 97 225 112 272 144 416 162
720 9 155 14 192 28 203 13 11 60 13 228 10 l212 -4 6 23 c8 32 24 29 40 -9z
m-612 -65 c11 -20 -47 -448 -74 -552 -53 -198 -147 -442 -252 -649 -84 -168
-68 -93 23 103 71 154 145 363 178 505 42 180 66 302 77 400 18 166 32 221 48
193z m-1378 -13 c-3 -5 -16 -15 -28 -21 -19 -9 -19 -8 3 10 28 23 34 26 25 11z
m-55 -44 c0 -2 -7 -7 -16 -10 -8 -3 -12 -2 -9 4 6 10 25 14 25 6z m-1050 -21
c-7 -8 -17 -15 -22 -15 -6 0 -27 -13 -48 -30 -40 -32 -60 -38 -60 -17 0 6 28
26 63 43 72 36 84 39 67 19z m-8075 -266 l88 -226 141 -6 c77 -4 201 -7 274
-7 72 0 132 -3 132 -7 0 -5 -91 -80 -201 -168 -110 -88 -205 -165 -209 -171
-6 -6 17 -111 59 -270 38 -142 68 -260 67 -262 -2 -1 -38 22 -82 50 -44 29
-111 73 -149 98 -73 47 -89 58 -134 101 l-27 26 26 31 c15 18 31 32 37 32 6 0
16 7 23 15 12 14 16 13 38 -7 29 -26 9 5 -107 171 l-66 94 -5 -164 -5 -164
-215 -138 c-128 -82 -216 -132 -218 -125 -1 7 27 125 62 261 l63 248 -28 31
c-16 16 -29 27 -29 23 0 -3 -12 7 -26 22 -14 15 -22 21 -18 13 3 -8 -7 1 -24
20 -17 19 -31 31 -32 27 -1 -20 -58 62 -62 89 -4 28 -2 30 21 26 48 -9 16 7
-79 39 -165 54 -165 58 -10 59 74 0 198 3 275 6 l140 6 39 -56 c45 -63 58 -74
27 -20 -27 46 -27 121 -1 203 12 34 18 67 14 73 -5 7 -3 8 6 3 10 -6 12 -4 7
8 -3 10 -3 17 2 17 5 0 9 12 9 26 0 15 5 30 12 34 6 4 11 11 10 16 -5 18 55
173 61 161 4 -7 46 -114 94 -238z m12820 0 l88 -226 141 -6 c77 -4 201 -7 274
-7 72 0 132 -3 132 -7 0 -5 -91 -80 -201 -168 -110 -88 -205 -165 -209 -171
-6 -6 17 -111 59 -270 38 -142 68 -260 67 -262 -2 -1 -38 22 -82 50 -44 29
-111 73 -149 98 -73 47 -89 58 -134 101 l-27 26 26 31 c15 18 31 32 37 32 6 0
16 7 23 15 12 14 16 13 38 -7 29 -26 9 5 -107 171 l-66 94 -5 -164 -5 -164
-215 -138 c-128 -82 -216 -132 -218 -125 -1 7 27 125 62 261 l63 248 -28 31
c-16 16 -29 27 -29 23 0 -3 -12 7 -26 22 -14 15 -22 21 -18 13 3 -8 -7 1 -24
20 -17 19 -31 31 -32 27 -1 -20 -58 62 -62 89 -4 28 -2 30 21 26 48 -9 16 7
-79 39 -165 54 -165 58 -10 59 74 0 198 3 275 6 l140 6 39 -56 c45 -63 58 -74
27 -20 -27 46 -27 121 -1 203 12 34 18 67 14 73 -5 7 -3 8 6 3 10 -6 12 -4 7
8 -3 10 -3 17 2 17 5 0 9 12 9 26 0 15 5 30 12 34 6 4 11 11 10 16 -5 18 55
173 61 161 4 -7 46 -114 94 -238z m-1767 -25 c-3 -15 -97 -58 -106 -49 -3 2 4
8 14 12 10 3 21 9 24 12 4 5 60 38 68 40 2 1 2 -6 0 -15z m-1848 -54 c0 -6
-26 -27 -57 -46 -97 -59 -513 -303 -685 -402 -293 -169 -443 -252 -703 -392
-44 -24 -116 -64 -160 -90 -71 -42 -234 -131 -435 -237 -36 -19 -87 -47 -115
-63 -58 -33 -353 -170 -366 -170 -21 0 -7 19 24 30 52 21 288 140 472 237 249
132 303 162 370 203 56 35 114 66 325 178 151 80 476 265 785 447 77 46 216
127 310 180 93 53 181 105 195 116 29 21 40 24 40 9z m1067 -72 c-2 -13 -4 -5
-4 17 -1 22 1 32 4 23 2 -10 2 -28 0 -40z m773 38 c0 -3 -4 -8 -10 -11 -5 -3
-10 -1 -10 4 0 6 5 11 10 11 6 0 10 -2 10 -4z m-70 -16 c8 -5 11 -12 7 -16 -4
-4 -15 0 -24 9 -18 18 -8 23 17 7z m-660 -46 c0 -8 -4 -12 -10 -9 -5 3 -10 10
-10 16 0 5 5 9 10 9 6 0 10 -7 10 -16z m740 -18 c0 -2 -7 -9 -15 -16 -12 -10
-15 -10 -15 4 0 9 7 16 15 16 8 0 15 -2 15 -4z m-255 -76 c-5 -8 -11 -8 -17
-2 -6 6 -7 16 -3 22 5 8 11 8 17 2 6 -6 7 -16 3 -22z m-130 -39 c3 -5 1 -12
-5 -16 -5 -3 -10 1 -10 9 0 18 6 21 15 7z m-865 -48 c0 -5 -23 -21 -51 -38
-28 -16 -65 -39 -84 -50 -18 -11 -59 -35 -92 -54 -32 -18 -60 -37 -63 -42 -5
-7 -95 -54 -152 -79 -13 -6 -45 -24 -73 -40 -27 -17 -57 -33 -65 -37 -8 -3
-22 -12 -31 -20 -9 -7 -76 -44 -150 -82 -349 -179 -489 -252 -493 -260 -3 -5
-6 -156 -6 -337 -1 -181 -5 -335 -9 -343 -13 -20 -17 74 -16 394 l0 289 40 27
c22 14 92 53 155 87 63 33 180 97 259 141 78 45 145 81 148 81 3 0 50 27 105
60 54 33 101 60 103 60 3 0 34 18 70 40 37 22 71 37 77 34 6 -4 8 -3 5 2 -6
10 12 20 176 107 42 22 77 44 77 49 0 5 8 7 18 4 9 -3 24 -1 32 4 18 12 20 12
20 3z m-7400 -823 c0 -5 -2 -10 -4 -10 -3 0 -8 5 -11 10 -3 6 -1 10 4 10 6 0
11 -4 11 -10z m-116 -16 c4 -9 4 -19 1 -22 -3 -3 -5 0 -5 7 0 7 -5 9 -11 5 -8
-4 -7 -9 2 -15 7 -4 11 -10 9 -13 -3 -2 -13 2 -24 9 -15 12 -16 16 -5 29 18
20 25 20 33 0z m44 -36 c-14 -24 -33 -65 -42 -93 -10 -27 -21 -57 -26 -65 -4
-9 -11 -39 -15 -67 -3 -28 -13 -60 -20 -70 -13 -17 -20 -11 -99 72 -47 50 -86
96 -86 104 0 11 5 10 20 -4 17 -15 22 -16 36 -4 16 13 17 11 12 -21 -6 -34 -6
-34 5 -7 12 30 27 36 27 10 0 -13 3 -14 12 -5 10 10 10 17 0 32 -6 11 -12 27
-12 36 0 13 5 10 20 -9 11 -14 20 -32 20 -40 0 -25 18 -29 25 -7 7 22 -2 43
-15 35 -5 -3 -11 -2 -14 3 -7 12 43 84 55 77 5 -4 9 -1 9 4 0 6 7 11 16 11 14
0 14 -3 4 -15 -7 -9 -10 -18 -7 -21 3 -3 17 12 31 34 24 38 56 66 65 57 2 -2
-8 -23 -21 -47z m-130 30 c16 -16 15 -30 -3 -54 -14 -18 -14 -18 -10 3 3 19 1
21 -20 13 -17 -7 -25 -5 -29 6 -3 8 -1 14 4 14 6 0 10 7 10 15 0 18 31 20 48
3z m-64 -70 c-3 -5 -12 -2 -20 6 -20 21 -17 28 5 14 11 -7 17 -16 15 -20z
m-34 -8 c0 -5 -7 -13 -16 -18 -11 -6 -13 -11 -5 -16 23 -14 10 -24 -29 -22
-65 3 -83 46 -19 46 16 0 29 5 29 10 0 6 9 10 20 10 11 0 20 -4 20 -10z m70 0
c0 -5 -4 -10 -10 -10 -5 0 -10 5 -10 10 0 6 5 10 10 10 6 0 10 -4 10 -10z
m591 -222 c102 -115 244 -244 439 -398 24 -19 58 -46 75 -60 56 -47 179 -133
395 -277 241 -160 371 -238 499 -299 52 -25 120 -63 150 -86 31 -22 108 -70
171 -106 64 -37 129 -76 145 -88 17 -11 62 -38 100 -59 39 -21 108 -63 155
-93 47 -30 136 -81 197 -113 62 -32 127 -69 145 -82 18 -13 65 -41 103 -63 93
-50 203 -124 186 -124 -15 0 -143 67 -313 163 -64 37 -124 67 -132 67 -21 0
-39 -81 -23 -106 3 -6 55 -35 114 -64 60 -29 124 -63 143 -75 70 -44 373 -206
570 -305 182 -91 378 -170 424 -170 9 0 16 -7 16 -16 0 -12 -6 -15 -22 -10
-13 4 -46 14 -74 22 -118 33 -486 204 -717 333 -32 18 -106 60 -165 93 -59 33
-163 87 -232 120 -69 34 -149 76 -178 95 -29 18 -54 33 -56 33 -4 0 -123 70
-261 153 -22 13 -66 39 -98 58 -74 43 -76 44 -175 104 -46 28 -97 59 -115 69
-76 46 -412 271 -487 327 -92 68 -178 127 -225 154 -92 53 -177 117 -300 223
-66 57 -152 125 -190 151 -39 26 -107 77 -153 114 -45 37 -85 67 -88 67 -3 0
-47 -35 -98 -78 -148 -127 -224 -182 -248 -182 -22 0 -21 2 9 28 17 15 39 32
49 38 10 6 14 15 10 22 -5 9 -18 2 -44 -22 -35 -35 -52 -38 -52 -10 0 8 -4 14
-10 14 -5 0 -10 5 -10 10 0 7 7 7 21 -1 17 -9 20 -8 17 3 -3 7 -14 14 -26 16
-12 2 -22 9 -23 15 0 7 -4 2 -9 -10 -11 -26 -30 -31 -30 -7 0 8 -4 13 -8 10
-13 -8 -52 23 -52 40 0 31 61 102 201 236 79 76 158 151 174 168 17 16 33 30
36 30 3 0 35 -33 70 -72z m7374 -54 c97 -121 205 -286 205 -311 0 -7 -4 -13
-8 -13 -12 0 -36 -21 -212 -189 -85 -81 -195 -183 -245 -227 -49 -43 -92 -81
-95 -84 -48 -49 -446 -361 -540 -423 -52 -34 -190 -125 -305 -202 -272 -181
-340 -224 -515 -327 -80 -47 -169 -99 -198 -117 -29 -17 -55 -31 -58 -31 -2 0
-44 -24 -92 -54 -48 -29 -154 -90 -237 -136 -82 -45 -172 -95 -200 -110 -136
-75 -316 -162 -322 -156 -5 5 55 42 122 75 32 15 51 30 47 36 -4 6 -72 50
-152 99 -184 112 -210 129 -210 139 0 15 -27 6 -105 -35 -133 -69 -148 -76
-210 -103 -33 -15 -87 -39 -120 -55 -110 -50 -133 -60 -144 -60 -6 0 -19 -4
-29 -9 -80 -42 -141 -68 -149 -62 -6 3 -14 37 -18 75 -4 44 -3 66 3 62 6 -3
34 10 62 29 29 19 105 60 169 91 268 128 550 273 771 397 69 39 175 96 235
127 101 52 357 205 1055 627 285 172 514 329 831 571 307 234 468 377 519 461
14 22 30 41 35 41 6 0 55 -57 110 -126z m-3939 65 c29 -16 71 -45 93 -62 21
-18 62 -48 90 -67 114 -78 138 -106 65 -75 -53 22 -104 57 -203 140 -47 38
-92 75 -100 82 -30 23 1 13 55 -18z m-1993 14 c-7 -2 -19 -2 -25 0 -7 3 -2 5
12 5 14 0 19 -2 13 -5z m-2039 -78 c41 -41 48 -42 76 -13 11 12 20 18 20 14 0
-15 -41 -66 -54 -66 -11 0 -55 42 -85 83 -24 31 7 19 43 -18z m1835 -68 c22
-60 26 -87 13 -87 -4 0 -17 36 -29 81 -24 91 -16 94 16 6z m442 -15 c-5 -15
-13 -43 -16 -62 -9 -48 -26 -90 -36 -90 -13 0 -11 10 11 80 11 34 20 69 20 76
0 7 6 26 13 41 12 27 12 27 15 4 2 -12 -1 -35 -7 -49z m3974 -62 c-3 -5 -12
-10 -18 -10 -7 0 -6 4 3 10 19 12 23 12 15 0z m-660 -36 c-5 -2 -95 -50 -200
-105 -104 -56 -235 -125 -290 -154 -178 -93 -510 -271 -585 -313 -171 -97
-520 -264 -552 -265 -22 -1 -52 10 -84 30 -78 47 -87 48 -157 14 -86 -42 -102
-62 -116 -148 -12 -70 -14 -73 -39 -72 -24 2 -24 2 -4 6 20 4 22 10 22 77 0
63 3 75 23 92 29 26 162 104 177 104 7 0 39 -17 73 -37 91 -57 111 -54 297 41
229 116 444 228 455 236 12 8 158 86 375 198 179 92 424 223 525 279 45 25 74
36 80 30 7 -6 7 -11 0 -13z m532 -30 c-3 -3 -12 -4 -19 -1 -8 3 -5 6 6 6 11 1
17 -2 13 -5z m-5380 -102 c10 -13 9 -18 -6 -29 -16 -11 -18 -22 -15 -75 3 -44
1 -57 -5 -43 -5 11 -10 48 -10 83 -1 42 -7 72 -18 89 l-18 26 30 -18 c17 -10
36 -25 42 -33z m5263 44 c0 -3 -4 -8 -10 -11 -5 -3 -10 -1 -10 4 0 6 5 11 10
11 6 0 10 -2 10 -4z m-75 -46 c-27 -16 -51 -27 -54 -24 -5 5 -8 3 44 31 59 33
68 27 10 -7z m-4968 -167 c52 -43 115 -96 139 -118 60 -55 72 -65 81 -65 11 0
48 -43 46 -52 -1 -3 5 -9 13 -12 12 -4 15 -2 10 9 -8 21 -5 19 38 -19 27 -24
34 -35 25 -39 -11 -5 -10 -6 1 -4 24 3 80 -24 80 -39 0 -8 -12 -19 -27 -25
-50 -18 -239 -122 -270 -149 -7 -5 -15 -10 -19 -10 -3 0 -19 -10 -36 -21 -19
-14 -33 -18 -39 -12 -7 7 0 17 18 29 36 24 64 41 83 51 8 4 23 15 33 24 18 16
18 19 -9 85 -15 38 -40 96 -55 128 -23 47 -26 62 -17 73 10 12 -2 28 -63 87
-40 40 -106 96 -145 124 -66 48 -84 68 -84 93 0 13 82 -45 197 -138z m4898
128 c-6 -5 -62 -35 -125 -67 -63 -31 -133 -69 -155 -82 -62 -40 -247 -133
-252 -128 -2 2 17 14 44 27 26 13 71 38 99 56 50 31 118 68 297 160 80 42 111
53 92 34z m2450 -105 l29 -23 -32 -17 c-36 -19 -134 -102 -232 -197 -112 -108
-404 -352 -594 -494 -44 -33 -100 -76 -125 -94 -111 -84 -708 -480 -846 -561
-22 -13 -69 -42 -105 -65 -36 -23 -92 -57 -125 -75 -33 -18 -136 -79 -230
-135 -184 -111 -202 -121 -405 -230 -74 -40 -211 -115 -305 -167 -147 -82
-529 -275 -635 -321 -19 -8 -82 -36 -140 -62 -182 -83 -244 -105 -290 -105
-38 0 -31 24 13 40 51 19 178 71 224 91 24 11 46 19 50 19 10 0 429 212 553
280 58 32 182 99 275 150 138 75 286 159 425 240 8 5 94 57 190 116 96 59 245
150 330 202 408 250 717 458 1110 747 283 208 502 392 720 602 47 46 92 83
100 83 8 0 28 -11 45 -24z m-7568 -83 c-3 -10 -5 -2 -5 17 0 19 2 27 5 18 2
-10 2 -26 0 -35z m9488 -24 c171 -55 308 -219 322 -384 10 -129 -37 -256 -154
-412 -92 -123 -243 -310 -294 -366 l-44 -48 -342 299 -342 300 82 98 c46 55
128 158 184 229 117 152 197 229 275 267 102 50 195 55 313 17z m-11895 0
c260 -60 522 -411 495 -664 -6 -64 -49 -166 -71 -172 -6 -2 -46 37 -89 88
l-78 91 18 50 c32 90 4 184 -86 282 -89 97 -199 124 -319 77 -74 -28 -162 -99
-197 -158 -24 -41 -28 -58 -27 -123 0 -92 34 -168 106 -242 68 -70 124 -92
209 -84 l67 6 81 -96 c44 -53 78 -100 76 -105 -11 -17 -110 -39 -174 -39 -197
1 -406 167 -523 416 -100 213 -70 422 78 553 51 45 165 107 220 120 54 12 160
13 214 0z m2412 -142 c2 -53 0 -97 -4 -97 -5 0 -7 55 -7 123 2 135 7 124 11
-26z m4568 63 c0 -5 -5 -10 -11 -10 -5 0 -7 5 -4 10 3 6 8 10 11 10 2 0 4 -4
4 -10z m-220 -115 c-7 -8 -17 -15 -23 -15 -6 0 -18 -7 -28 -16 -10 -9 -23 -14
-30 -12 -6 2 10 16 37 30 59 32 60 32 44 13z m-107 -56 c-13 -13 -21 -18 -158
-88 -57 -30 -107 -53 -109 -50 -2 2 28 20 67 39 40 19 74 37 77 40 6 6 122 68
130 69 2 1 -1 -4 -7 -10z m-3540 -50 c-4 -15 -8 -17 -19 -8 -21 17 -17 38 5
32 13 -3 17 -11 14 -24z m123 -84 c33 -22 79 -57 103 -77 24 -21 47 -38 52
-38 12 0 103 -62 112 -77 4 -7 24 -15 45 -19 22 -4 98 -47 192 -109 147 -98
485 -305 496 -305 3 0 68 -43 144 -95 76 -52 143 -95 148 -95 5 0 23 -20 41
-45 18 -25 28 -45 23 -45 -5 0 -35 19 -68 42 -59 41 -182 124 -304 203 -112
73 -192 120 -295 174 -55 29 -107 59 -116 67 -8 8 -28 14 -42 14 -19 0 -27 5
-28 18 0 14 -3 13 -16 -5 -8 -13 -22 -23 -29 -23 -8 0 -14 -4 -14 -9 0 -5 -18
-12 -40 -16 -22 -4 -42 -10 -45 -15 -3 -4 -20 -11 -39 -14 -37 -7 -125 -51
-141 -71 -14 -17 -51 8 -40 25 6 9 10 9 17 -1 7 -10 8 -4 3 16 -3 17 -7 40 -9
52 -2 12 -11 32 -20 45 -9 12 -16 31 -16 41 0 10 -4 16 -9 12 -16 -9 -94 27
-124 57 -38 37 -16 36 31 -2 48 -39 77 -40 130 -7 23 15 48 27 55 26 20 -3 47
12 47 27 0 8 -4 14 -9 14 -4 0 -29 20 -55 45 -84 82 -137 103 -172 68 -12 -12
-19 -14 -21 -6 -3 8 -12 9 -27 3 -12 -4 -47 -6 -77 -3 -30 3 -119 8 -199 12
-80 3 -140 9 -134 13 13 9 343 12 351 4 11 -11 34 -6 49 9 14 13 11 19 -7 17
-4 -1 -6 9 -5 22 0 14 6 22 14 19 6 -3 12 -1 12 5 0 14 -29 24 -51 17 -9 -3
-20 -1 -24 4 -3 7 0 8 9 5 10 -4 16 -1 16 8 0 24 -12 29 -32 11 -10 -9 -18
-11 -18 -6 0 6 7 13 15 17 8 3 15 10 15 16 0 6 -4 8 -10 5 -6 -3 -7 1 -4 10 7
17 4 19 120 -60z m3111 -31 c-3 -3 -12 -4 -19 -1 -8 3 -5 6 6 6 11 1 17 -2 13
-5z m-227 -118 c0 -2 -9 -6 -20 -9 -11 -3 -18 -1 -14 4 5 9 34 13 34 5z
m-2780 -30 c0 -3 -4 -8 -10 -11 -5 -3 -10 -1 -10 4 0 6 5 11 10 11 6 0 10 -2
10 -4z m2717 -2 c-3 -3 -12 -4 -19 -1 -8 3 -5 6 6 6 11 1 17 -2 13 -5z m-57
-27 c-14 -6 -27 -14 -30 -17 -12 -13 -100 -49 -100 -41 0 8 29 24 103 56 38
17 63 19 27 2z m-2577 -23 c16 -14 26 -28 23 -31 -3 -3 -20 8 -38 26 -38 37
-25 42 15 5z m-33 -37 c0 -23 -2 -22 -19 10 -10 19 -9 22 4 17 8 -4 15 -15 15
-27z m1708 6 c-38 -2 -98 -2 -135 0 -38 2 -7 3 67 3 74 0 105 -1 68 -3z
m-1883 -53 c3 -5 -1 -10 -10 -10 -9 0 -13 5 -10 10 3 6 8 10 10 10 2 0 7 -4
10 -10z m-29 -45 c-8 -8 -18 -15 -22 -15 -3 0 -1 7 6 15 7 8 17 15 22 15 5 0
3 -7 -6 -15z m-2338 -128 l82 -82 -323 -323 -322 -322 -94 94 c-51 52 -92 98
-90 103 5 13 648 613 657 613 4 0 44 -37 90 -83z m2882 17 c0 -15 8 -23 25
-26 20 -4 25 -1 25 16 0 22 17 46 32 46 12 0 10 -39 -2 -53 -6 -7 -16 -19 -23
-29 -8 -11 -21 -15 -44 -11 -32 5 -33 6 -33 57 0 36 3 47 10 36 5 -8 10 -25
10 -36z m175 -181 c9 -69 12 -71 85 -55 19 5 46 6 60 2 20 -5 11 -10 -47 -24
-40 -10 -76 -15 -81 -12 -4 2 -14 -29 -21 -70 -18 -110 -33 -94 -25 29 3 56 7
107 8 112 0 6 -7 9 -16 7 -10 -2 -38 4 -64 13 -25 8 -50 13 -55 10 -13 -9 -11
7 5 28 16 21 36 22 36 2 0 -8 9 -15 21 -15 11 0 29 -5 39 -10 23 -12 34 1 25
30 -4 12 -15 20 -30 20 -12 0 -33 9 -46 20 l-24 19 28 1 c16 0 36 -4 46 -10
16 -8 20 -4 27 33 l7 42 8 -55 c4 -30 10 -83 14 -117z m-180 65 l0 -53 -50 -1
c-27 -1 -62 -6 -76 -12 -15 -6 -36 -8 -48 -5 -12 3 -28 0 -35 -6 -11 -10 -21
-9 -45 3 -47 25 -43 31 18 33 32 0 79 8 105 17 25 9 60 16 76 16 29 0 34 7 33
48 -1 6 4 12 11 12 7 0 11 -20 11 -52z m-285 21 c0 -5 -4 -9 -10 -9 -5 0 -10
7 -10 16 0 8 5 12 10 9 6 -3 10 -10 10 -16z m556 -29 c17 0 19 -29 2 -34 -41
-13 -68 -15 -68 -6 0 5 17 10 38 10 l37 0 -23 18 c-13 10 -19 21 -15 26 4 4 9
2 11 -3 2 -6 10 -11 18 -11z m41 -42 c-3 -8 -6 -5 -6 6 -1 11 2 17 5 13 3 -3
4 -12 1 -19z m6848 -98 c190 -71 488 -170 654 -217 l64 -18 -100 -105 -100
-104 -94 35 -93 36 -167 -155 c-92 -85 -166 -160 -164 -166 22 -64 56 -188 53
-190 -1 -2 -50 -42 -107 -90 l-104 -86 -67 267 c-64 254 -119 450 -176 626
l-26 77 94 90 c59 57 98 87 108 84 8 -3 110 -41 225 -84z m-7155 30 c0 -47 -2
-50 -26 -50 -23 0 -24 1 -10 16 9 8 16 31 16 50 0 19 5 34 10 34 6 0 10 -22
10 -50z m394 31 c3 -5 -3 -11 -14 -14 -13 -3 -20 0 -20 9 0 15 26 19 34 5z
m-475 -4 c-2 -1 -13 -9 -24 -17 -19 -14 -19 -14 -6 3 7 9 18 17 24 17 6 0 8
-1 6 -3z m521 -22 c-7 -9 -15 -13 -17 -11 -7 7 7 26 19 26 6 0 6 -6 -2 -15z
m-574 -22 c-6 -6 -36 9 -36 18 0 5 9 4 20 -3 10 -7 18 -14 16 -15z m94 8 c0
-13 -21 -19 -45 -12 -18 4 -18 6 5 12 36 10 40 10 40 0z m165 -2 c10 -15 -1
-23 -20 -15 -9 3 -13 10 -10 16 8 13 22 13 30 -1z m-2609 -154 c49 -44 139
-122 201 -173 165 -137 216 -212 215 -319 -1 -119 -105 -216 -213 -199 l-39 6
25 -51 c45 -89 30 -195 -37 -255 -49 -45 -89 -59 -174 -59 -75 0 -86 3 -165
42 -106 54 -204 133 -557 448 l-45 41 312 332 313 332 37 -32 c21 -18 78 -69
127 -113z m2537 105 c6 -23 -3 -32 -22 -21 -8 5 -11 17 -6 30 7 24 20 21 28
-9z m49 -12 c6 -17 -1 -38 -13 -38 -5 0 -9 11 -9 25 0 26 14 34 22 13z m511
-58 c-7 -42 -13 -35 -12 16 0 35 3 43 8 29 5 -11 6 -31 4 -45z m322 -36 c15
-36 14 -37 -12 -60 -29 -25 -44 -24 -23 1 8 10 10 29 6 55 -8 51 8 53 29 4z
m-305 -76 c0 -5 -4 -8 -10 -8 -5 0 -10 10 -10 23 0 18 2 19 10 7 5 -8 10 -18
10 -22z m240 -22 c0 -3 -26 -17 -57 -31 -136 -63 -159 -77 -185 -107 -26 -30
-28 -31 -28 -10 0 24 42 54 125 92 28 12 68 30 90 41 40 19 55 23 55 15z
m-240 -47 c0 -16 -4 -29 -10 -29 -5 0 -10 16 -10 36 0 21 4 33 10 29 6 -3 10
-19 10 -36z m824 -131 c-4 -7 -19 -31 -34 -53 -15 -22 -42 -69 -61 -105 -39
-74 -115 -154 -174 -181 -22 -11 -60 -30 -84 -44 -47 -27 -85 -33 -79 -13 3 7
20 17 39 23 19 5 52 20 72 33 21 12 43 22 48 22 28 0 122 110 184 215 38 63
74 115 82 115 9 0 11 -5 7 -12z m172 -154 c-25 -21 -51 -35 -70 -35 -57 -3
-101 3 -128 17 -31 16 -39 40 -10 29 86 -33 179 -27 217 15 10 11 21 17 24 14
3 -3 -12 -21 -33 -40z m4839 -29 c177 -85 311 -328 276 -501 -29 -146 -106
-240 -306 -374 -144 -96 -361 -230 -373 -230 -8 0 -467 779 -461 783 2 2 58
36 124 77 66 41 165 104 220 140 184 123 232 141 365 137 80 -3 104 -8 155
-32z m-4356 -128 c7 -179 -83 -437 -154 -437 -13 0 -45 4 -72 10 -26 5 -65 12
-87 15 -25 4 -35 10 -29 16 6 6 20 6 38 -1 15 -6 54 -12 86 -13 49 -2 61 2 83
22 58 55 88 152 112 366 6 55 11 75 18 75 1 0 4 -24 5 -53z m-3452 -231 c82
-46 172 -95 201 -110 28 -14 52 -31 52 -36 0 -17 -64 -140 -73 -140 -12 0
-231 121 -375 207 -68 40 -127 73 -132 73 -4 0 -28 -33 -53 -74 -34 -55 -43
-77 -34 -84 22 -17 232 -139 347 -202 63 -35 117 -65 118 -66 2 -1 -13 -34
-33 -73 l-38 -71 -31 19 c-17 10 -67 38 -111 61 -44 24 -140 79 -214 123 -73
43 -137 75 -141 70 -5 -4 -33 -48 -64 -97 l-55 -89 45 -29 c76 -48 303 -177
422 -240 61 -33 112 -61 112 -64 0 -3 -68 -131 -75 -142 -8 -11 -472 254 -682
390 l-122 80 71 106 c39 59 154 229 255 379 l183 272 140 -90 c77 -49 206
-126 287 -173z m2281 156 c2 -7 -6 -12 -17 -12 -21 0 -27 11 -14 24 9 9 26 2
31 -12z m4719 -665 c107 -197 194 -359 192 -361 -10 -8 -217 -116 -223 -116
-7 0 -406 795 -406 810 0 5 44 32 97 59 l98 49 23 -42 c13 -22 112 -202 219
-399z m-6431 219 c65 -30 181 -79 258 -110 76 -31 152 -64 170 -73 87 -44 144
-114 166 -205 32 -126 -65 -261 -192 -270 -21 -1 -38 -3 -38 -4 0 -2 14 -18
30 -36 57 -62 59 -117 13 -252 -24 -73 -30 -131 -13 -141 6 -3 10 -15 10 -25
0 -17 -12 -15 -135 27 l-135 46 0 36 c0 20 14 74 30 121 37 107 39 158 6 189
-23 22 -286 141 -310 141 -6 0 -41 -68 -76 -151 -36 -83 -70 -153 -76 -155 -6
-3 -61 19 -122 48 l-111 53 196 408 c108 224 199 407 203 407 4 0 61 -24 126
-54z m5789 -85 c98 -44 148 -118 148 -216 1 -66 -10 -94 -56 -142 l-31 -33 48
0 c86 0 135 -43 193 -170 40 -88 55 -107 95 -115 16 -4 27 -12 25 -18 -4 -13
-223 -115 -249 -116 -21 -1 -63 60 -110 161 -42 89 -71 113 -126 105 -36 -5
-289 -94 -305 -107 -4 -4 17 -76 48 -160 30 -84 55 -158 55 -164 0 -10 -206
-86 -232 -86 -4 0 -52 141 -108 313 -56 171 -119 365 -140 430 -27 82 -35 119
-27 122 7 2 107 38 222 81 381 139 364 134 440 134 46 0 84 -7 110 -19z m-971
-278 c179 -616 182 -629 166 -709 -28 -135 -145 -228 -361 -285 -62 -17 -114
-23 -199 -23 -137 -1 -196 16 -263 74 -73 65 -91 119 -142 441 -25 156 -48
296 -51 310 -5 26 -5 26 106 44 61 10 112 16 114 14 1 -2 26 -128 55 -279 29
-151 59 -296 67 -321 29 -90 92 -122 214 -107 128 15 220 86 220 169 0 21 -34
172 -76 335 -41 163 -74 297 -72 298 8 5 185 54 200 55 9 0 19 -7 22 -16z
m-3556 -43 c207 -58 332 -178 332 -317 0 -29 -4 -53 -9 -53 -5 0 -53 9 -106
20 -53 11 -99 20 -101 20 -2 0 -4 12 -4 26 0 38 -27 78 -73 107 -48 31 -175
62 -224 54 -75 -13 -115 -64 -89 -115 18 -34 58 -57 269 -154 202 -92 256
-130 291 -200 95 -190 -88 -365 -359 -344 -245 18 -477 133 -547 270 -21 40
-30 147 -15 163 4 3 55 -7 114 -24 l106 -30 13 -43 c24 -82 95 -126 248 -156
136 -27 226 1 226 71 0 37 -31 62 -149 117 -58 28 -153 73 -211 101 -178 87
-246 177 -220 293 25 111 82 172 196 208 65 21 214 14 312 -14z m728 -154
c122 -16 451 -45 559 -49 l70 -2 3 -84 3 -84 -143 7 c-79 4 -208 13 -287 21
-80 8 -146 13 -148 12 -2 -2 -8 -41 -14 -87 -9 -64 -9 -84 1 -90 13 -8 232
-29 409 -39 l116 -6 3 -35 c2 -19 1 -54 -3 -79 l-7 -44 -136 7 c-75 4 -198 13
-272 20 -74 8 -136 13 -138 11 -9 -8 -28 -221 -20 -226 16 -10 474 -48 591
-49 l47 0 0 -86 0 -85 -107 6 c-279 16 -787 66 -800 78 -1 2 27 204 64 450 57
378 69 447 83 447 9 0 65 -6 126 -14z m1497 -31 c151 -32 270 -119 301 -221 6
-20 1 -22 -105 -32 l-112 -12 -36 39 c-48 52 -125 75 -230 69 -119 -7 -218
-63 -261 -148 -42 -83 -49 -236 -14 -320 22 -52 69 -95 138 -126 51 -23 74
-27 146 -27 107 1 182 27 239 85 37 36 72 110 59 123 -3 3 -60 0 -128 -6 -101
-9 -124 -9 -131 3 -5 7 -9 43 -9 79 l0 66 93 7 c50 4 154 14 231 22 76 8 140
13 142 11 6 -6 67 -478 62 -482 -6 -6 -152 -23 -160 -19 -3 3 -14 27 -23 55
l-17 50 -48 -45 c-89 -84 -194 -119 -355 -119 -331 0 -541 222 -497 525 33
227 203 391 442 427 88 13 200 12 273 -4z"/>
<path d="M9864 17007 c-11 -7 -88 -61 -170 -122 l-149 -110 73 -3 c39 -2 104
-2 143 0 l71 3 43 123 c35 102 40 122 26 122 -9 -1 -25 -6 -37 -13z"/>
<path d="M9060 15725 c-93 -12 -63 -12 270 -8 206 3 384 9 395 14 33 13 -550
7 -665 -6z"/>
<path d="M8858 15713 c6 -2 18 -2 25 0 6 3 1 5 -13 5 -14 0 -19 -2 -12 -5z"/>
<path d="M10888 15713 c7 -3 16 -2 19 1 4 3 -2 6 -13 5 -11 0 -14 -3 -6 -6z"/>
<path d="M10933 15713 c9 -2 25 -2 35 0 9 3 1 5 -18 5 -19 0 -27 -2 -17 -5z"/>
<path d="M11088 15695 c41 -13 104 -26 140 -28 37 -2 74 -7 82 -10 30 -12 136
-14 209 -4 49 6 76 7 78 0 2 -5 17 -7 33 -5 17 2 36 0 43 -6 18 -15 267 -45
267 -31 0 7 -102 26 -217 39 -51 5 -103 14 -117 20 -14 5 -38 9 -53 9 -15 0
-55 5 -88 10 -170 27 -210 30 -325 30 l-125 0 73 -24z"/>
<path d="M12010 15601 c0 -13 56 -21 91 -14 19 4 34 1 38 -6 6 -9 11 -8 21 4
11 13 7 15 -31 16 -24 0 -61 2 -81 4 -21 2 -38 0 -38 -4z"/>
<path d="M12186 15581 c5 -5 45 -11 89 -15 l80 -6 -50 15 c-56 16 -134 20
-119 6z"/>
<path d="M12430 15550 c0 -5 17 -10 38 -10 27 0 33 3 22 10 -20 13 -60 13 -60
0z"/>
<path d="M12515 15530 c3 -5 18 -10 32 -10 32 0 28 5 -10 14 -19 4 -26 3 -22
-4z"/>
<path d="M12583 15514 c3 -4 55 -17 114 -29 109 -22 286 -64 378 -89 28 -8 86
-21 130 -31 115 -24 305 -80 361 -105 27 -11 65 -25 84 -29 94 -23 392 -142
538 -215 41 -21 84 -41 95 -47 12 -5 45 -22 72 -38 28 -17 77 -44 110 -62 33
-17 95 -54 137 -81 47 -30 94 -52 118 -55 22 -3 40 -3 40 -1 0 12 -110 88
-190 132 -131 72 -481 244 -541 265 -30 11 -94 36 -144 57 -79 32 -140 52
-335 109 -25 7 -83 24 -130 38 -47 13 -98 28 -115 31 -105 23 -237 56 -330 81
-131 36 -408 84 -392 69z"/>
<path d="M5160 14509 c-14 -12 -32 -26 -41 -33 -15 -10 -15 -20 -5 -86 l12
-75 13 65 c20 97 31 129 49 140 9 5 13 9 7 9 -5 0 -21 -9 -35 -20z"/>
<path d="M14717 14514 c-4 -4 -7 -48 -7 -97 0 -80 8 -109 17 -59 14 77 8 173
-10 156z"/>
<path d="M14625 14459 c-4 -6 -5 -12 -2 -15 2 -3 7 2 10 11 7 17 1 20 -8 4z"/>
<path d="M14841 14424 c0 -11 3 -14 6 -6 3 7 2 16 -1 19 -3 4 -6 -2 -5 -13z"/>
<path d="M5122 13399 c2 -113 3 -133 5 -66 2 59 8 95 13 92 16 -10 11 98 -5
119 -13 18 -15 2 -13 -145z"/>
<path d="M14601 13354 c0 -11 3 -14 6 -6 3 7 2 16 -1 19 -3 4 -6 -2 -5 -13z"/>
<path d="M14647 13305 c3 -9 -2 -21 -12 -29 -14 -10 -15 -17 -6 -33 8 -16 8
-22 -3 -26 -17 -7 -29 55 -13 65 6 4 8 10 4 14 -4 4 -14 -2 -23 -14 -8 -11
-21 -19 -28 -16 -7 3 -16 -1 -19 -9 -4 -10 3 -13 24 -12 20 1 29 -3 29 -14 1
-17 23 -51 33 -51 4 0 4 7 1 15 -4 9 0 15 9 15 8 0 20 6 26 14 9 11 7 15 -9
19 -20 5 -28 27 -10 27 6 0 10 -4 10 -10 0 -16 20 -12 27 6 3 9 -3 23 -15 35
-25 23 -33 24 -25 4z"/>
<path d="M14441 12713 c-1 -32 13 -52 24 -33 3 5 2 10 -4 10 -5 0 -12 12 -14
28 -4 26 -4 25 -6 -5z"/>
<path d="M5130 11375 c-1 -71 -3 -222 -6 -335 -2 -113 0 -243 5 -290 8 -85 8
-85 11 65 7 381 7 589 0 637 -6 43 -8 28 -10 -77z"/>
<path d="M5390 11232 c0 -9 25 -33 48 -46 20 -11 14 -3 -18 27 -16 16 -30 25
-30 19z"/>
<path d="M5463 11181 c-1 -11 5 -22 13 -25 10 -4 12 -2 8 6 -5 7 -3 8 5 4 7
-5 10 -15 7 -23 -4 -10 -2 -13 8 -10 10 4 13 1 9 -9 -5 -14 4 -17 42 -15 20 1
20 1 0 -8 -18 -7 -17 -9 10 -27 17 -10 35 -22 40 -27 99 -79 150 -101 113 -48
-19 27 -236 201 -250 201 -2 0 -4 -9 -5 -19z"/>
<path d="M5126 10485 c-4 -16 -10 -37 -13 -45 -3 -8 -7 -442 -9 -964 -3 -522
-7 -953 -10 -958 -3 -4 11 -8 31 -8 l35 0 -5 968 c-3 532 -9 983 -13 1002 l-9
35 -7 -30z"/>
<path d="M5393 8449 c-24 -7 -33 -15 -33 -31 0 -17 3 -19 11 -11 7 7 24 9 39
6 20 -3 29 0 34 12 6 17 0 36 -12 34 -4 0 -22 -5 -39 -10z"/>
<path d="M5500 8450 c0 -5 6 -10 14 -10 8 0 18 5 21 10 3 6 -3 10 -14 10 -12
0 -21 -4 -21 -10z"/>
<path d="M5210 8425 c0 -8 9 -15 20 -15 11 0 20 7 20 15 0 8 -9 15 -20 15 -11
0 -20 -7 -20 -15z"/>
<path d="M5572 8420 c0 -14 2 -19 5 -12 2 6 2 18 0 25 -3 6 -5 1 -5 -13z"/>
<path d="M5535 8410 c3 -5 8 -10 11 -10 2 0 4 5 4 10 0 6 -5 10 -11 10 -5 0
-7 -4 -4 -10z"/>
<path d="M5215 8390 c3 -5 8 -10 11 -10 2 0 4 5 4 10 0 6 -5 10 -11 10 -5 0
-7 -4 -4 -10z"/>
<path d="M5419 8378 c-6 -21 -5 -39 2 -44 5 -3 9 6 9 20 0 21 -7 36 -11 24z"/>
<path d="M5260 8055 c0 -8 4 -15 10 -15 5 0 7 7 4 15 -4 8 -8 15 -10 15 -2 0
-4 -7 -4 -15z"/>
<path d="M5278 7955 c-3 -22 -2 -44 2 -50 5 -5 13 -26 19 -45 l11 -35 -5 40
c-3 22 -9 60 -13 85 l-8 45 -6 -40z"/>
<path d="M5410 7510 c0 -5 10 -10 23 -10 18 0 19 2 7 10 -19 13 -30 13 -30 0z"/>
<path d="M5416 7470 c3 -14 17 -45 31 -69 19 -32 27 -40 34 -30 12 20 11 29
-3 27 -7 -2 -19 11 -28 27 -9 17 -21 39 -28 50 -12 19 -13 18 -6 -5z"/>
<path d="M5495 7420 c3 -5 8 -10 11 -10 2 0 4 5 4 10 0 6 -5 10 -11 10 -5 0
-7 -4 -4 -10z"/>
<path d="M5560 7370 c0 -5 5 -10 10 -10 6 0 10 5 10 10 0 6 -4 10 -10 10 -5 0
-10 -4 -10 -10z"/>
<path d="M5660 7360 c0 -5 5 -10 11 -10 5 0 7 5 4 10 -3 6 -8 10 -11 10 -2 0
-4 -4 -4 -10z"/>
<path d="M5740 7360 c0 -5 5 -10 10 -10 6 0 10 5 10 10 0 6 -4 10 -10 10 -5 0
-10 -4 -10 -10z"/>
<path d="M5535 7340 c-3 -5 -2 -10 4 -10 5 0 13 5 16 10 3 6 2 10 -4 10 -5 0
-13 -4 -16 -10z"/>
<path d="M5710 7341 c0 -6 4 -13 10 -16 6 -3 7 1 4 9 -7 18 -14 21 -14 7z"/>
<path d="M5560 7300 c-14 -26 -13 -43 3 -37 6 2 12 9 12 15 0 7 5 11 10 10 6
-2 9 -9 9 -15 -1 -7 8 -13 20 -13 12 0 31 -6 42 -14 26 -19 52 -5 28 14 -9 8
-21 26 -27 40 -8 20 -11 22 -14 8 -5 -19 -18 -24 -27 -9 -12 19 -46 19 -56 1z"/>
<path d="M5510 7299 c0 -5 5 -7 10 -4 6 3 10 8 10 11 0 2 -4 4 -10 4 -5 0 -10
-5 -10 -11z"/>
<path d="M5506 7241 c-4 -5 -2 -12 3 -15 5 -4 12 -2 15 3 4 5 2 12 -3 15 -5 4
-12 2 -15 -3z"/>
<path d="M5570 7231 c0 -9 24 -21 42 -21 6 0 6 6 -2 15 -14 16 -40 20 -40 6z"/>
<path d="M5650 7220 c0 -6 7 -10 15 -10 8 0 15 2 15 4 0 2 -7 6 -15 10 -8 3
-15 1 -15 -4z"/>
<path d="M5675 7190 c3 -5 20 -10 36 -10 18 0 28 4 24 10 -3 6 -20 10 -36 10
-18 0 -28 -4 -24 -10z"/>
<path d="M5502 7164 c2 -11 -2 -18 -9 -16 -16 3 -16 0 -1 -33 11 -24 13 -25
20 -8 6 13 7 9 4 -12 -2 -16 0 -38 6 -48 9 -18 10 -18 24 0 13 16 13 15 3 -8
-10 -24 -7 -33 30 -88 24 -34 47 -59 53 -55 7 5 7 8 0 13 -6 4 -7 12 -3 20 7
11 10 11 17 0 5 -8 9 -20 10 -27 4 -23 11 -24 17 -2 3 11 1 20 -4 20 -5 0 -9
7 -9 16 0 13 -7 15 -30 11 -26 -6 -30 -4 -29 16 0 12 3 17 6 10 3 -9 17 -8 54
6 48 19 60 16 38 -6 -9 -9 -4 -18 17 -38 23 -21 26 -28 14 -35 -8 -5 -12 -12
-8 -15 10 -10 181 163 173 175 -3 6 -11 8 -16 4 -6 -3 -7 5 -3 22 l7 27 -69
-6 c-64 -6 -68 -5 -49 10 19 15 19 15 -12 9 -18 -3 -33 -2 -33 3 0 5 -39 16
-87 25 -49 9 -98 19 -111 23 -19 5 -23 2 -20 -13z m149 -49 c-1 -15 -24 -12
-29 3 -3 9 2 13 12 10 10 -1 17 -7 17 -13z m89 -42 c0 -20 -3 -24 -11 -16 -7
7 -9 19 -6 27 10 24 17 19 17 -11z m120 17 c0 -5 -9 -10 -20 -10 -11 0 -20 5
-20 10 0 6 9 10 20 10 11 0 20 -4 20 -10z m-73 -45 c5 6 17 11 28 12 11 1 14
0 8 -3 -20 -9 -16 -45 3 -37 14 5 14 3 2 -16 l-13 -22 -17 21 -17 21 -28 -27
c-19 -19 -24 -29 -14 -32 12 -4 25 8 35 33 2 6 8 6 16 -2 10 -9 7 -17 -16 -37
-36 -31 -36 -31 -53 -4 -10 16 -10 23 -2 26 18 6 13 30 -11 46 -12 9 -18 19
-14 23 4 5 16 -2 26 -14 20 -25 30 -20 30 16 0 24 1 24 15 5 9 -12 18 -15 22
-9z m-187 -5 c0 -5 -5 -10 -11 -10 -5 0 -7 5 -4 10 3 6 8 10 11 10 2 0 4 -4 4
-10z m265 0 c3 -5 1 -10 -4 -10 -6 0 -11 5 -11 10 0 6 2 10 4 10 3 0 8 -4 11
-10z"/>
<path d="M5900 7080 c0 -11 4 -20 10 -20 5 0 14 9 20 20 9 17 8 20 -10 20 -13
0 -20 -7 -20 -20z"/>
<path d="M5630 6863 c0 -6 7 -14 16 -17 8 -3 13 -9 10 -14 -2 -4 -1 -14 3 -21
6 -9 10 -5 13 13 3 15 3 24 0 21 -3 -3 -14 2 -24 12 -10 9 -18 11 -18 6z"/>
<path d="M3455 14240 c27 -12 43 -12 25 0 -8 5 -22 9 -30 9 -10 0 -8 -3 5 -9z"/>
<path d="M15665 14240 c27 -12 43 -12 25 0 -8 5 -22 9 -30 9 -10 0 -8 -3 5 -9z"/>
<path d="M8807 14144 c-11 -11 3 -24 18 -18 8 4 12 10 9 15 -6 11 -18 12 -27
3z"/>
<path d="M9355 14071 c-3 -5 -1 -12 5 -16 5 -3 10 1 10 9 0 18 -6 21 -15 7z"/>
<path d="M8236 13965 c4 -8 12 -15 20 -15 20 0 17 7 -6 20 -16 9 -18 8 -14 -5z"/>
<path d="M8295 13910 c-3 -5 -2 -10 4 -10 5 0 13 5 16 10 3 6 2 10 -4 10 -5 0
-13 -4 -16 -10z"/>
<path d="M7972 13869 c2 -7 10 -15 17 -17 8 -3 12 1 9 9 -2 7 -10 15 -17 17
-8 3 -12 -1 -9 -9z"/>
<path d="M7938 13833 c7 -3 16 -2 19 1 4 3 -2 6 -13 5 -11 0 -14 -3 -6 -6z"/>
<path d="M7696 13679 c-14 -14 -16 -19 -5 -19 15 1 49 23 49 34 0 12 -26 4
-44 -15z"/>
<path d="M7510 13610 c-46 -10 -168 -55 -177 -65 -5 -4 10 -4 32 0 22 4 53 9
70 12 16 3 43 12 60 21 31 16 35 18 70 21 17 1 18 3 5 11 -8 5 -17 9 -20 9 -3
-1 -21 -5 -40 -9z"/>
<path d="M7255 13531 c-10 -17 9 -19 40 -6 l30 13 -32 1 c-17 1 -34 -3 -38 -8z"/>
<path d="M7466 13068 c-10 -148 -7 -713 4 -702 6 6 10 132 11 314 1 168 5 344
8 393 4 60 3 87 -5 87 -7 0 -14 -36 -18 -92z"/>
<path d="M12096 12943 c26 -109 41 -164 46 -169 12 -11 -4 122 -18 153 -19 43
-37 53 -28 16z"/>
<path d="M12006 12775 c3 -8 27 -30 53 -49 25 -19 57 -46 70 -60 14 -14 28
-26 33 -26 16 0 7 41 -13 58 -12 9 -26 22 -33 27 -11 11 -105 65 -112 65 -2 0
-1 -7 2 -15z"/>
<path d="M9647 12389 c-112 -16 -293 -111 -447 -234 -155 -124 -271 -272 -368
-473 -28 -56 -56 -110 -64 -119 -11 -13 -13 -238 -15 -1292 -1 -702 2 -1261 7
-1243 14 61 28 1451 19 1957 -4 255 9 556 26 562 6 2 28 -13 50 -33 22 -20 59
-52 83 -71 44 -37 50 -53 29 -75 -57 -57 -58 -80 -64 -1913 -6 -1857 3 -1685
-79 -1685 -73 0 -71 -3 -59 122 11 114 7 189 -10 188 -6 0 -13 -75 -18 -187
-11 -285 -13 -264 19 -292 27 -23 32 -23 129 -17 55 4 165 9 245 12 228 8 320
44 320 128 0 44 -12 58 -42 51 -21 -5 -27 -2 -36 22 -14 38 -23 241 -23 536 0
266 12 433 37 512 28 90 34 111 34 126 0 8 6 25 13 39 8 15 16 42 20 62 12 78
94 157 188 181 40 11 159 17 459 22 387 6 568 19 660 46 19 5 60 17 90 26 30
9 62 18 70 21 8 3 17 6 20 7 3 0 21 9 40 20 19 11 70 36 112 57 42 20 114 60
160 88 80 50 101 66 213 165 28 25 58 45 68 45 10 0 17 6 15 13 -3 14 30 67
42 67 5 0 10 -6 13 -12 2 -7 3 -4 1 6 -2 12 18 43 50 80 58 67 116 149 116
164 0 6 4 12 9 14 4 2 25 38 45 80 44 95 69 193 55 220 -8 15 -5 20 14 27 22
9 24 18 38 143 25 235 12 452 -45 758 -15 83 -55 194 -88 249 -12 20 -55 86
-95 148 -40 62 -73 118 -73 124 0 11 -39 69 -65 95 -6 7 -22 25 -36 41 -35 42
-182 159 -274 219 -226 146 -340 176 -740 189 -129 4 -175 3 -163 -4 9 -6 63
-16 120 -21 364 -37 442 -65 783 -283 277 -178 403 -334 529 -654 74 -189 97
-317 103 -568 7 -257 -12 -361 -109 -615 -74 -195 -258 -439 -423 -562 -157
-116 -351 -220 -527 -282 -155 -54 -254 -65 -728 -76 -223 -5 -422 -13 -442
-18 -104 -27 -186 -90 -220 -171 -11 -25 -23 -55 -28 -66 -38 -82 -93 -278
-110 -390 -17 -112 -20 -182 -20 -501 0 -204 -2 -373 -5 -376 -3 -3 -20 -2
-38 1 l-32 7 1 379 c1 343 3 393 23 510 21 129 40 201 67 261 7 17 20 55 28
85 19 75 48 145 112 275 l55 112 327 6 c408 7 717 23 804 42 236 49 531 203
756 396 197 169 331 403 383 668 29 145 31 391 5 510 -25 111 -84 297 -116
360 -55 110 -160 266 -233 346 -59 65 -217 202 -322 279 -44 33 -82 63 -85 67
-11 14 -125 68 -145 68 -12 0 -25 4 -30 9 -6 4 -73 29 -151 54 -136 44 -414
102 -614 127 -158 20 -230 33 -230 41 0 11 -114 10 -193 -2z m757 -608 c11 -4
15 -10 10 -14 -15 -9 -95 4 -88 14 6 11 51 11 78 0z m786 -170 l25 -7 -29 -8
c-16 -4 -43 -4 -60 0 -27 6 -29 8 -11 15 24 9 42 9 75 0z m-990 -26 c-16 -19
-34 -19 -50 0 -11 13 -10 14 3 9 9 -3 24 -1 34 4 23 13 29 7 13 -13z m175
-170 c-75 -79 -134 -149 -130 -154 3 -6 1 -20 -5 -31 -14 -26 -56 -26 -70 0
-16 29 4 60 38 60 22 0 55 28 162 135 74 74 136 135 139 135 2 0 -58 -65 -134
-145z m181 -64 c-140 -140 -207 -214 -203 -224 7 -20 -20 -57 -42 -57 -9 0
-22 5 -29 12 -29 29 2 82 41 73 18 -5 58 31 227 200 113 113 207 205 210 205
3 0 -89 -94 -204 -209z m-328 167 c27 -27 3 -88 -34 -88 -8 0 -24 10 -35 21
-15 15 -41 24 -78 29 l-56 7 57 2 c46 1 59 5 68 21 12 23 59 27 78 8z m-516
-241 c-153 -153 -201 -207 -196 -220 14 -37 -40 -63 -66 -32 -17 21 -3 55 24
55 15 0 85 61 226 200 113 109 207 199 210 200 3 0 -86 -91 -198 -203z m924
-16 c-152 -152 -197 -203 -192 -216 14 -36 -44 -71 -72 -43 -27 27 2 84 37 74
11 -3 79 57 216 189 110 107 202 194 205 195 3 0 -85 -90 -194 -199z m260 64
c16 -24 16 -27 -1 -45 -10 -11 -27 -20 -39 -20 -13 0 -67 -46 -148 -127 -100
-99 -128 -134 -128 -154 0 -38 -24 -55 -55 -41 -32 15 -34 57 -4 72 11 7 26 9
33 7 7 -3 70 52 141 123 107 108 126 131 120 149 -8 26 18 61 46 61 10 0 26
-11 35 -25z m122 -127 c-68 -72 -176 -183 -240 -246 -96 -93 -118 -120 -118
-143 0 -35 -30 -55 -60 -39 -40 21 -15 89 29 77 14 -3 79 56 262 239 134 134
245 244 247 244 2 0 -52 -59 -120 -132z m-1130 40 c18 -18 15 -45 -7 -60 -13
-9 -23 -40 -35 -103 -9 -49 -16 -94 -16 -100 0 -5 45 35 100 90 77 77 98 104
94 120 -8 31 18 59 48 52 14 -4 29 -14 32 -23 9 -24 -12 -54 -38 -54 -30 0
-310 -281 -311 -311 0 -12 -10 -28 -22 -36 -19 -13 -24 -12 -42 6 -12 12 -21
25 -21 30 0 20 33 42 55 37 16 -4 30 3 52 27 26 27 35 49 53 140 20 99 20 110
6 126 -27 30 -13 71 24 71 9 0 21 -5 28 -12z m-674 -10 c-13 -24 -37 -48 -47
-48 -6 0 2 14 18 30 31 32 41 38 29 18z m1789 -330 c-189 -190 -242 -249 -245
-272 -4 -36 -31 -55 -56 -40 -39 25 -20 88 24 82 19 -2 71 45 262 235 131 130
242 237 247 237 6 0 -99 -109 -232 -242z m-821 115 c10 -9 18 -24 18 -34 0
-24 -42 -51 -65 -43 -12 5 -44 -20 -124 -100 -90 -89 -107 -112 -103 -132 9
-50 -44 -73 -72 -32 -13 19 -14 25 -2 43 7 11 23 20 35 20 32 1 240 211 234
236 -6 22 22 59 45 59 9 0 24 -7 34 -17z m1472 -68 c24 -36 16 -31 -34 22 -37
38 -39 42 -14 25 17 -12 39 -33 48 -47z m-1337 18 c13 -19 12 -24 -6 -42 -19
-19 -21 -33 -21 -135 l0 -115 42 -33 c54 -43 87 -76 121 -121 23 -31 32 -36
56 -31 18 4 33 0 44 -11 22 -22 21 -38 -2 -59 -26 -24 -59 -12 -67 22 -4 15
-52 73 -110 133 l-104 106 0 115 c0 94 -3 117 -15 122 -18 7 -20 47 -3 64 18
18 48 11 65 -15z m882 -15 c15 -9 29 -9 61 1 55 16 62 8 9 -9 -26 -9 -44 -22
-50 -36 -11 -31 -44 -47 -68 -35 -27 15 -34 41 -16 67 17 27 36 30 64 12z
m-1629 -38 c13 -23 -2 -60 -24 -60 -9 0 -17 -18 -21 -52 -7 -52 -10 -56 -153
-198 l-145 -145 141 149 c134 142 141 150 147 199 5 35 4 52 -4 55 -15 5 -14
59 2 65 26 11 47 6 57 -13z m-292 -137 c3 -28 -1 -33 -23 -39 -14 -3 -29 -4
-32 0 -4 4 -27 -13 -52 -36 l-46 -43 43 46 c29 31 41 51 36 62 -9 25 15 49 45
45 21 -2 27 -9 29 -35z m2019 18 l-98 -6 -139 -141 c-180 -181 -179 -171 -42
-305 53 -53 108 -104 122 -115 35 -27 298 -298 284 -293 -7 2 -125 114 -263
249 -213 208 -255 245 -281 245 -35 0 -47 11 -54 46 -3 21 1 29 21 38 14 6 34
9 44 6 15 -5 53 27 166 139 l148 145 95 -1 95 -2 -98 -5z m-1601 -128 c8 -30
-18 -57 -46 -48 -11 4 -56 -35 -142 -122 -69 -71 -167 -168 -218 -218 l-94
-90 77 90 c42 50 87 100 99 112 13 12 76 73 140 134 72 69 114 117 111 125 -8
20 16 44 43 44 17 0 25 -7 30 -27z m569 -163 c76 -76 135 -128 143 -125 17 6
48 -10 56 -30 9 -25 -12 -55 -38 -55 -29 0 -50 24 -43 49 3 14 -28 51 -124
147 l-129 128 -43 -42 -43 -42 -179 0 -180 0 -224 -222 -225 -223 199 208
c110 115 212 220 228 233 28 23 33 24 206 24 l177 0 39 40 c21 22 42 40 45 40
3 0 64 -59 135 -130z m1023 118 c19 -19 14 -56 -8 -68 -17 -9 -20 -21 -20 -78
l0 -67 145 -145 c80 -80 145 -152 144 -160 0 -10 -3 -8 -9 5 -4 11 -72 83
-149 160 l-141 140 0 71 c0 51 -4 75 -15 84 -19 16 -19 35 1 54 19 19 36 20
52 4z m130 -100 c7 -7 12 -23 12 -37 0 -19 29 -55 113 -141 l112 -115 -118
115 c-85 83 -123 114 -138 112 -39 -7 -65 38 -37 66 7 7 19 12 28 12 9 0 21
-5 28 -12z m-1357 -87 c20 -16 22 -23 14 -47 -13 -37 -51 -43 -84 -14 -21 18
-38 20 -135 20 l-111 0 -176 -177 c-97 -98 -179 -185 -183 -193 -4 -12 -5 -11
-3 2 1 9 80 97 175 196 l172 180 123 4 c111 3 124 5 145 26 27 27 33 27 63 3z
m173 -17 c9 -8 16 -22 16 -29 0 -23 -31 -47 -54 -41 -18 4 -39 -12 -104 -77
l-81 -82 -1 -225 -1 -225 -102 -97 c-56 -54 -105 -98 -109 -98 -4 0 38 43 93
97 l99 96 0 226 0 226 85 85 c63 62 85 91 85 110 0 47 42 66 74 34z m474 -46
c19 -19 14 -56 -9 -68 -11 -7 -23 -9 -27 -6 -3 4 -86 -73 -184 -171 l-178
-178 0 -125 0 -125 -127 -127 c-70 -71 -133 -128 -139 -128 -7 0 48 59 122
132 l134 131 0 127 0 126 173 174 c144 144 173 177 169 197 -8 42 37 70 66 41z
m-360 -80 c7 -7 12 -19 12 -28 0 -22 -36 -54 -53 -47 -9 3 -46 -27 -96 -77
l-81 -81 0 -170 0 -170 -140 -140 c-76 -76 -142 -137 -144 -134 -3 3 55 65
129 139 l135 135 0 170 0 170 85 85 c70 69 83 88 79 107 -11 43 43 72 74 41z
m512 -33 c6 -8 9 -22 6 -32 -4 -14 32 -56 149 -173 l155 -155 -2 -90 -2 -90
-3 85 -4 85 -152 153 c-117 117 -158 152 -177 152 -30 0 -50 17 -50 40 0 37
55 55 80 25z m-1136 -57 c8 -13 7 -23 -2 -39 -12 -18 -11 -31 4 -85 9 -35 20
-64 23 -64 4 0 26 20 50 44 31 31 42 50 37 62 -8 21 19 64 41 64 25 0 53 -30
53 -56 0 -26 -32 -48 -60 -41 -12 3 -43 -21 -100 -78 l-83 -84 58 -16 c54 -16
60 -16 86 -1 35 21 69 7 69 -27 0 -47 -48 -63 -74 -26 -9 13 -40 28 -82 40
l-69 19 -67 -67 c-49 -49 -68 -75 -68 -93 0 -14 -5 -31 -12 -38 -15 -15 -51
-15 -66 0 -29 29 3 84 43 74 16 -4 32 5 63 37 l42 43 -23 63 c-16 42 -32 66
-48 75 -17 8 -24 20 -24 41 0 26 4 30 29 30 37 0 56 -27 39 -54 -10 -16 -9
-27 3 -58 9 -21 21 -49 26 -62 9 -24 10 -24 67 33 l58 58 -21 70 c-16 51 -28
73 -43 79 -26 10 -36 35 -22 60 13 25 57 22 73 -3z m891 -119 c0 -15 -8 -28
-22 -34 -19 -8 -27 -31 -53 -140 -17 -71 -33 -139 -36 -150 -4 -11 32 17 79
64 62 61 83 88 80 102 -12 44 56 69 77 29 16 -29 -4 -60 -38 -60 -22 0 -55
-28 -166 -139 -98 -98 -137 -144 -133 -155 9 -22 -1 -44 -25 -57 -25 -13 -68
13 -68 41 0 27 29 52 56 47 17 -3 34 8 68 42 44 45 46 49 81 201 20 85 38 158
41 161 2 4 -3 12 -11 19 -22 18 -18 46 7 64 19 13 25 14 43 2 11 -7 20 -24 20
-37z m203 -15 c16 -11 22 -24 20 -40 -2 -18 15 -44 70 -104 l73 -79 -4 -118
-3 -118 -2 121 -2 121 -73 70 c-61 59 -77 70 -99 66 -19 -4 -30 1 -42 18 -21
30 -20 35 4 59 24 24 29 24 58 4z m517 -194 c6 -10 -42 -59 -57 -60 -10 0 -10
54 -1 63 10 11 51 8 58 -3z m-497 -72 c4 -22 -28 -50 -50 -45 -13 4 -30 -6
-53 -31 -30 -32 -34 -44 -35 -87 0 -49 -2 -53 -62 -110 l-63 -60 58 60 c55 59
57 62 57 116 0 50 3 58 35 89 26 25 33 39 29 56 -8 32 32 59 61 40 11 -7 21
-20 23 -28z m-1010 -10 c17 -17 15 -57 -3 -64 -12 -5 -15 -24 -15 -82 0 -93
-9 -92 -11 1 -2 55 -6 70 -20 78 -24 12 -25 55 -1 68 23 14 36 13 50 -1z
m-410 -76 c-2 -20 -9 -28 -27 -30 -13 -2 -28 1 -33 6 -6 6 0 8 16 5 24 -5 25
-3 17 18 -5 15 -16 23 -27 22 -18 -1 -18 -1 0 12 28 21 58 2 54 -33z m860
-154 c28 -28 2 -88 -33 -75 -8 4 -17 2 -20 -3 -3 -6 -16 -15 -28 -21 l-22 -12
20 22 c12 14 18 34 17 51 -5 40 39 65 66 38z m-961 -340 c-3 -8 -6 -5 -6 6 -1
11 2 17 5 13 3 -3 4 -12 1 -19z m-26 -59 c-5 -13 -10 -19 -10 -12 -1 15 10 45
15 40 3 -2 0 -15 -5 -28z m-34 -81 c-3 -8 -6 -5 -6 6 -1 11 2 17 5 13 3 -3 4
-12 1 -19z m-42 -122 c-26 -91 -44 -134 -45 -106 0 38 57 206 67 196 2 -2 -8
-42 -22 -90z m-48 -858 c-3 -7 -5 -2 -5 12 0 14 2 19 5 13 2 -7 2 -19 0 -25z
m-20 -220 c-3 -7 -5 -2 -5 12 0 14 2 19 5 13 2 -7 2 -19 0 -25z m238 -139 c18
-18 -10 -25 -92 -22 -43 2 -179 -1 -302 -7 -158 -8 -227 -8 -234 -1 -23 23 14
35 126 42 150 10 488 2 502 -12z"/>
<path d="M9457 11063 c-10 -10 -8 -33 3 -33 5 0 14 9 20 20 8 15 8 20 -3 20
-8 0 -17 -3 -20 -7z"/>
<path d="M7468 12193 c0 -32 -2 -70 -3 -85 -1 -15 2 -33 6 -40 5 -7 9 28 9 85
0 104 -9 135 -12 40z"/>
<path d="M10910 12192 c0 -5 17 -16 37 -26 21 -10 54 -31 75 -48 21 -16 54
-38 74 -47 35 -17 384 -346 384 -362 0 -5 9 -18 20 -29 25 -25 25 -23 0 32
-18 41 -139 188 -161 196 -5 2 -16 16 -24 31 -12 24 -141 119 -256 189 -52 32
-149 73 -149 64z"/>
<path d="M7500 12020 c0 -5 7 -7 15 -4 8 4 15 8 15 10 0 2 -7 4 -15 4 -8 0
-15 -4 -15 -10z"/>
<path d="M7482 11980 c0 -14 2 -19 5 -12 2 6 2 18 0 25 -3 6 -5 1 -5 -13z"/>
<path d="M7491 11920 c0 -8 4 -24 9 -35 l9 -20 0 20 c0 11 -4 27 -9 35 -9 13
-10 13 -9 0z"/>
<path d="M7830 11706 c0 -8 4 -17 9 -20 5 -3 9 -40 10 -83 1 -42 3 -79 6 -81
3 -3 5 20 5 50 0 30 3 76 6 102 6 42 5 46 -15 46 -12 0 -21 -6 -21 -14z"/>
<path d="M7803 11615 c0 -33 2 -45 4 -27 2 18 2 45 0 60 -2 15 -4 0 -4 -33z"/>
<path d="M11554 11610 c11 -21 23 -37 25 -35 7 8 -21 63 -34 68 -8 4 -4 -9 9
-33z"/>
<path d="M12841 11560 c0 -8 6 -28 14 -45 13 -30 13 -30 14 -4 1 14 -6 34 -14
45 -11 14 -14 15 -14 4z"/>
<path d="M7801 11473 c-1 -6 -4 -20 -7 -30 -5 -17 -5 -17 6 0 6 10 9 23 6 30
-3 9 -5 9 -5 0z"/>
<path d="M12870 11457 c0 -14 5 -29 10 -32 7 -4 8 3 4 22 -9 38 -14 42 -14 10z"/>
<path d="M12875 11298 c12 -125 45 -182 59 -100 17 102 -2 172 -46 172 -19 0
-20 -4 -13 -72z"/>
<path d="M12920 11075 c0 -9 5 -13 10 -10 6 3 10 2 10 -4 0 -5 -5 -13 -11 -17
-8 -4 -9 -49 -4 -148 3 -77 6 -151 7 -162 0 -22 43 -83 51 -74 5 6 -12 379
-18 397 -2 6 -13 17 -24 23 -17 9 -21 8 -21 -5z"/>
<path d="M12871 10618 c-35 -181 -43 -233 -54 -348 -12 -118 -15 -128 -48
-175 -20 -27 -53 -97 -74 -155 -88 -243 -213 -456 -362 -614 l-103 -110 0 -53
c0 -29 3 -53 6 -53 22 0 218 244 365 453 28 40 126 219 147 269 2 5 -13 15
-34 24 -40 17 -33 35 11 27 41 -8 112 113 145 248 11 46 25 100 30 119 17 61
30 142 40 240 6 52 12 103 14 113 4 17 -46 77 -64 77 -4 0 -13 -28 -19 -62z"/>
<path d="M13020 10229 c0 -5 5 -7 10 -4 6 3 10 8 10 11 0 2 -4 4 -10 4 -5 0
-10 -5 -10 -11z"/>
<path d="M12811 9754 c0 -11 3 -14 6 -6 3 7 2 16 -1 19 -3 4 -6 -2 -5 -13z"/>
<path d="M8782 9605 c0 -16 2 -22 5 -12 2 9 2 23 0 30 -3 6 -5 -1 -5 -18z"/>
<path d="M12143 9074 c-21 -18 -41 -34 -45 -34 -4 0 -18 -8 -30 -17 -22 -19
-32 -28 -99 -103 -22 -25 -45 -45 -52 -45 -7 0 -49 -23 -95 -50 -105 -63 -103
-62 -206 -110 -80 -37 -104 -55 -73 -55 7 0 17 4 23 9 14 13 64 23 64 13 0 -5
-30 -23 -67 -40 -151 -70 -207 -116 -93 -76 157 54 319 147 505 288 87 66 245
216 245 233 0 6 -9 13 -20 16 -13 3 -32 -6 -57 -29z m-344 -299 c-19 -13 -39
-28 -45 -33 -6 -5 -20 -13 -31 -16 -12 -4 -27 -13 -33 -21 -14 -17 -55 -21
-45 -5 3 6 12 10 20 10 8 0 34 14 58 30 25 17 49 30 55 30 5 0 15 7 22 15 7 8
17 15 23 15 6 0 -5 -11 -24 -25z"/>
<path d="M7863 9045 c0 -27 2 -38 4 -22 2 15 2 37 0 50 -2 12 -4 0 -4 -28z"/>
<path d="M10727 9016 c-11 -8 -14 -17 -8 -20 5 -4 15 3 21 14 13 23 11 24 -13
6z"/>
<path d="M10655 8980 c-3 -5 1 -10 9 -10 8 0 18 5 21 10 3 6 -1 10 -9 10 -8 0
-18 -4 -21 -10z"/>
<path d="M7863 8890 c0 -36 2 -50 4 -32 2 17 2 47 0 65 -2 17 -4 3 -4 -33z"/>
<path d="M12112 8855 c-18 -19 -29 -35 -24 -35 4 0 13 5 18 10 7 7 23 1 49
-20 21 -16 41 -30 46 -30 10 0 -37 104 -49 108 -5 1 -23 -13 -40 -33z"/>
<path d="M7880 8631 c0 -5 -8 -11 -17 -14 -16 -3 -16 -5 2 -12 11 -5 26 -15
33 -22 7 -6 19 -10 27 -7 16 7 21 24 6 24 -5 0 -11 9 -14 20 -5 20 -37 29 -37
11z"/>
<path d="M7540 8603 c-36 -13 -97 -44 -121 -60 l-25 -18 27 -55 27 -55 15 35
c20 47 103 130 130 130 20 0 20 0 1 15 -20 15 -30 17 -54 8z"/>
<path d="M11364 8541 c-5 -4 -29 -14 -54 -20 -25 -6 -54 -14 -65 -17 -11 -3
-45 -12 -75 -18 -30 -7 -63 -16 -72 -20 -10 -5 -25 -5 -34 -2 -8 3 -24 1 -36
-5 -11 -6 -47 -17 -81 -25 l-62 -14 70 6 c100 8 394 82 419 105 5 5 7 11 5 14
-3 2 -10 1 -15 -4z"/>
<path d="M10509 8429 c-20 -4 -61 -7 -91 -6 -39 2 -55 -1 -55 -10 0 -7 5 -13
11 -13 6 0 4 -5 -4 -10 -23 -15 5 -30 59 -30 37 0 42 2 31 15 -17 20 -5 33 25
27 24 -4 24 -5 8 -18 -16 -12 -6 -14 77 -10 52 2 118 9 145 14 l50 9 -51 2
c-28 0 -66 4 -84 8 -23 4 -31 3 -26 -5 9 -14 -13 -27 -26 -14 -6 6 -3 15 8 26
9 9 13 20 10 24 -4 3 -12 0 -17 -8 -8 -11 -12 -12 -16 -2 -5 13 -4 13 -54 1z
m51 -29 c0 -5 -4 -10 -10 -10 -5 0 -10 5 -10 10 0 6 5 10 10 10 6 0 10 -4 10
-10z"/>
<path d="M10670 8430 c0 -5 5 -10 11 -10 5 0 7 5 4 10 -3 6 -8 10 -11 10 -2 0
-4 -4 -4 -10z"/>
<path d="M10828 8403 c12 -2 30 -2 40 0 9 3 -1 5 -23 4 -22 0 -30 -2 -17 -4z"/>
<path d="M7426 8354 c-11 -28 -6 -784 4 -784 6 0 10 11 10 25 0 14 5 25 10 25
6 0 10 -10 10 -22 0 -16 3 -19 9 -10 8 14 5 86 -6 112 -8 20 -10 271 -2 276 3
2 5 34 3 71 -9 242 -8 256 17 266 l24 8 -30 25 c-36 28 -41 29 -49 8z"/>
<path d="M10289 8365 c-2 -5 -47 -47 -100 -93 -107 -92 -145 -143 -212 -283
-57 -119 -74 -176 -59 -191 8 -8 8 -14 -3 -22 -21 -15 -40 -123 -25 -141 8
-10 7 -16 -5 -23 -15 -8 -17 -44 -18 -348 -2 -422 2 -517 21 -509 7 3 16 5 18
5 2 0 4 7 4 15 0 8 3 15 8 15 27 0 32 63 32 392 0 187 5 382 11 436 19 172 69
363 123 470 39 78 145 209 197 245 12 9 19 21 17 29 -3 7 -7 9 -9 3z"/>
<path d="M8761 8244 c0 -11 3 -14 6 -6 3 7 2 16 -1 19 -3 4 -6 -2 -5 -13z"/>
<path d="M8755 8157 c-4 -10 -5 -21 -1 -24 10 -10 18 4 13 24 -4 17 -4 17 -12
0z"/>
<path d="M7540 7600 c0 -5 4 -10 9 -10 6 0 13 5 16 10 3 6 -1 10 -9 10 -9 0
-16 -4 -16 -10z"/>
<path d="M7420 7540 c0 -19 4 -21 27 -15 16 4 30 9 32 11 7 6 -2 12 -32 19
-23 6 -27 4 -27 -15z"/>
<path d="M10050 7235 c0 -8 2 -15 4 -15 2 0 6 7 10 15 3 8 1 15 -4 15 -6 0
-10 -7 -10 -15z"/>
<path d="M7437 6801 c-4 -17 -3 -21 5 -13 5 5 8 16 6 23 -3 8 -7 3 -11 -10z"/>
<path d="M8065 6751 c-3 -5 -1 -12 5 -16 5 -3 10 1 10 9 0 18 -6 21 -15 7z"/>
<path d="M9718 6743 c6 -2 18 -2 25 0 6 3 1 5 -13 5 -14 0 -19 -2 -12 -5z"/>
<path d="M7801 6724 c0 -11 3 -14 6 -6 3 7 2 16 -1 19 -3 4 -6 -2 -5 -13z"/>
<path d="M7977 6726 c-4 -10 -5 -21 -2 -24 9 -9 17 6 13 25 -3 17 -4 17 -11
-1z"/>
<path d="M9658 6733 c6 -2 18 -2 25 0 6 3 1 5 -13 5 -14 0 -19 -2 -12 -5z"/>
<path d="M8015 6722 c-11 -11 -4 -24 10 -19 8 4 17 2 20 -3 9 -15 32 -12 38 4
4 10 0 12 -14 9 -10 -3 -19 -1 -19 4 0 10 -26 13 -35 5z"/>
<path d="M7920 6710 c0 -5 7 -10 15 -10 8 0 15 5 15 10 0 6 -7 10 -15 10 -8 0
-15 -4 -15 -10z"/>
<path d="M8115 6706 c-14 -10 -15 -15 -6 -21 8 -4 19 -1 28 8 20 19 1 30 -22
13z"/>
<path d="M9498 6713 c12 -2 30 -2 40 0 9 3 -1 5 -23 4 -22 0 -30 -2 -17 -4z"/>
<path d="M8157 6703 c-13 -12 -7 -23 13 -23 13 0 18 5 14 15 -7 16 -17 19 -27
8z"/>
<path d="M8450 6701 c0 -6 4 -13 10 -16 6 -3 7 1 4 9 -7 18 -14 21 -14 7z"/>
<path d="M9350 6700 c-14 -4 -72 -9 -130 -9 -71 -1 -100 -4 -90 -11 20 -13
206 -1 245 16 33 14 15 17 -25 4z"/>
<path d="M9423 6703 c9 -2 25 -2 35 0 9 3 1 5 -18 5 -19 0 -27 -2 -17 -5z"/>
<path d="M8213 6687 c2 -7 27 -12 61 -13 75 -1 68 18 -8 22 -40 1 -56 -1 -53
-9z"/>
<path d="M8357 6693 c-12 -11 -8 -23 8 -23 8 0 15 7 15 15 0 16 -12 20 -23 8z"/>
<path d="M13300 13180 c0 -5 5 -10 10 -10 6 0 10 5 10 10 0 6 -4 10 -10 10 -5
0 -10 -4 -10 -10z"/>
<path d="M13260 13140 c6 -11 16 -20 23 -20 8 0 6 4 -3 10 -13 9 -13 11 0 20
12 8 11 10 -8 10 -20 0 -21 -3 -12 -20z"/>
<path d="M13330 13142 c0 -4 9 -13 20 -20 27 -17 47 -5 23 14 -20 15 -43 18
-43 6z"/>
<path d="M13235 13120 c3 -5 8 -10 11 -10 2 0 4 5 4 10 0 6 -5 10 -11 10 -5 0
-7 -4 -4 -10z"/>
<path d="M13300 13114 c0 -8 5 -12 10 -9 6 3 10 10 10 16 0 5 -4 9 -10 9 -5 0
-10 -7 -10 -16z"/>
<path d="M13275 13090 c-3 -5 -1 -10 4 -10 6 0 11 5 11 10 0 6 -2 10 -4 10 -3
0 -8 -4 -11 -10z"/>
<path d="M13416 13050 c-47 -53 -46 -71 2 -26 20 20 42 36 48 36 6 0 17 7 24
15 11 13 9 15 -13 15 -16 0 -37 -14 -61 -40z"/>
<path d="M13381 13064 c0 -11 3 -14 6 -6 3 7 2 16 -1 19 -3 4 -6 -2 -5 -13z"/>
<path d="M13469 13023 c-13 -15 -12 -16 6 -8 11 4 30 9 42 10 38 3 39 15 1 15
-21 0 -41 -7 -49 -17z"/>
<path d="M13550 13013 c0 -5 5 -14 12 -21 6 -6 13 -17 15 -24 18 -81 15 -87
-15 -27 -19 36 -39 36 -34 0 4 -29 -17 -83 -29 -75 -5 3 -6 -2 -3 -10 19 -48
116 23 113 82 -1 35 -59 108 -59 75z"/>
<path d="M13346 12955 c6 -25 -10 -36 -19 -12 -2 6 -7 9 -11 6 -4 -4 1 -15 12
-25 11 -11 22 -26 25 -34 3 -8 6 2 6 22 1 20 4 43 7 52 4 11 1 16 -10 16 -12
0 -15 -6 -10 -25z"/>
<path d="M13447 12973 c-4 -7 -3 -14 2 -17 5 -3 7 -15 4 -25 -3 -10 0 -22 6
-25 13 -8 14 28 2 58 -5 13 -10 16 -14 9z"/>
<path d="M13290 12910 c0 -5 5 -10 10 -10 6 0 10 5 10 10 0 6 -4 10 -10 10 -5
0 -10 -4 -10 -10z"/>
<path d="M13553 12693 c9 -9 19 -14 23 -11 10 10 -6 28 -24 28 -15 0 -15 -1 1
-17z"/>
<path d="M14651 12494 c0 -11 3 -14 6 -6 3 7 2 16 -1 19 -3 4 -6 -2 -5 -13z"/>
<path d="M2645 12170 c27 -12 43 -12 25 0 -8 5 -22 9 -30 9 -10 0 -8 -3 5 -9z"/>
<path d="M16445 12170 c27 -12 43 -12 25 0 -8 5 -22 9 -30 9 -10 0 -8 -3 5 -9z"/>
<path d="M14690 10590 c0 -5 5 -10 10 -10 6 0 10 5 10 10 0 6 -4 10 -10 10 -5
0 -10 -4 -10 -10z"/>
<path d="M16565 9970 c27 -12 43 -12 25 0 -8 5 -22 9 -30 9 -10 0 -8 -3 5 -9z"/>
<path d="M2575 9950 c27 -12 43 -12 25 0 -8 5 -22 9 -30 9 -10 0 -8 -3 5 -9z"/>
<path d="M14750 10410 c0 -5 7 -7 15 -4 8 4 15 8 15 10 0 2 -7 4 -15 4 -8 0
-15 -4 -15 -10z"/>
<path d="M14742 10378 c-14 -18 -17 -39 -8 -65 13 -40 26 -25 24 27 -1 28 -3
50 -4 50 -1 0 -6 -6 -12 -12z"/>
<path d="M14769 9970 c-48 -8 -193 -71 -204 -89 -3 -7 0 -8 9 -5 9 3 16 1 16
-5 0 -6 -14 -10 -32 -9 -27 3 -34 -1 -36 -19 -2 -16 5 -26 25 -37 15 -8 37
-27 48 -42 11 -15 26 -33 33 -40 6 -7 12 -20 12 -28 0 -9 5 -16 10 -16 6 0 10
-4 10 -10 0 -5 39 -49 87 -97 69 -71 87 -84 91 -69 2 10 -2 22 -10 27 -12 8
-4 13 16 10 5 -1 6 17 2 39 -4 23 -3 39 2 36 11 -7 2 56 -11 72 -7 9 -5 17 9
27 14 10 16 17 7 25 -7 8 -8 22 -2 43 14 48 11 74 -10 94 -25 25 -32 60 -14
75 12 10 14 9 13 -3 -5 -30 0 -60 9 -55 5 3 8 22 7 42 -3 42 -12 46 -87 34z
m70 -119 c-1 -9 -4 -28 -8 -43 -6 -25 -7 -26 -26 -11 -14 11 -16 17 -7 20 6 3
12 18 12 34 0 21 4 27 15 23 8 -4 14 -14 14 -23z m-140 -105 c10 -12 8 -13 -8
-9 -12 3 -18 9 -15 14 7 12 10 11 23 -5z m107 -62 c16 6 28 -9 19 -25 -5 -7
-16 -3 -31 12 -13 12 -20 27 -16 33 4 7 8 4 10 -7 2 -11 9 -16 18 -13z m-60
-12 c28 -18 45 -82 22 -82 -6 0 -8 3 -5 6 4 4 -5 20 -18 36 -33 39 -32 63 1
40z"/>
<path d="M3145 7740 c27 -12 43 -12 25 0 -8 5 -22 9 -30 9 -10 0 -8 -3 5 -9z"/>
<path d="M15965 7740 c27 -12 43 -12 25 0 -8 5 -22 9 -30 9 -10 0 -8 -3 5 -9z"/>
<path d="M5917 6800 c-22 -21 -21 -27 1 -32 24 -7 44 23 28 38 -8 7 -16 5 -29
-6z"/>
<path d="M6350 6581 c-21 -41 -23 -39 109 -146 24 -20 56 -42 70 -50 14 -7 44
-32 66 -55 37 -39 255 -210 268 -210 3 0 29 -22 58 -50 30 -27 56 -50 60 -50
3 0 23 -16 44 -36 42 -38 199 -152 385 -279 63 -43 144 -101 180 -130 84 -66
103 -78 237 -146 108 -55 175 -96 181 -111 2 -5 8 -8 14 -8 6 0 27 -13 48 -30
21 -16 41 -30 45 -30 4 0 33 -15 64 -34 31 -18 92 -52 136 -76 44 -23 87 -48
96 -56 8 -8 19 -14 22 -14 13 0 182 -104 208 -127 14 -13 29 -23 34 -23 5 0
17 -8 27 -17 24 -21 34 -10 41 48 6 45 6 47 -31 65 -20 11 -39 22 -42 25 -3 3
-75 45 -160 94 -85 48 -166 96 -180 106 -30 20 -318 179 -326 179 -6 0 -236
146 -289 183 -16 11 -79 53 -140 93 -60 40 -135 90 -165 111 -30 21 -113 75
-185 121 -120 77 -313 215 -360 259 -11 10 -40 34 -65 53 -88 67 -230 191
-347 302 -65 62 -86 70 -103 39z m1770 -1291 c0 -5 -4 -10 -10 -10 -5 0 -10 5
-10 10 0 6 5 10 10 10 6 0 10 -4 10 -10z m50 -15 c0 -9 6 -12 15 -9 8 4 15 2
15 -4 0 -5 18 -17 39 -25 46 -19 61 -37 32 -37 -12 0 -21 5 -21 10 0 6 -6 10
-13 10 -10 0 -84 35 -96 45 -5 6 10 25 20 25 5 0 9 -7 9 -15z m197 -127 c-3
-8 -6 -5 -6 6 -1 11 2 17 5 13 3 -3 4 -12 1 -19z m50 -14 c-7 -7 -37 7 -37 17
0 6 9 5 21 -1 11 -7 19 -14 16 -16z m198 -104 c3 -5 1 -10 -4 -10 -6 0 -11 5
-11 10 0 6 2 10 4 10 3 0 8 -4 11 -10z"/>
<path d="M6284 6476 c-10 -8 -15 -18 -11 -22 4 -5 12 -2 16 5 5 8 14 10 21 6
9 -6 9 -9 -1 -16 -7 -4 -18 -25 -24 -46 -6 -22 -17 -38 -25 -38 -8 0 -15 -9
-15 -20 -1 -39 -34 -65 -36 -27 0 14 -2 14 -9 -3 -8 -19 -11 -18 -14 7 -2 21
-22 19 -46 -7 -18 -20 -20 -25 -8 -25 9 0 19 6 21 13 4 8 12 4 26 -13 24 -29
26 -40 9 -40 -14 -1 -58 -34 -58 -44 0 -3 10 -10 21 -17 17 -8 23 -8 30 2 11
18 -1 34 -13 18 -8 -11 -9 -11 -5 1 2 8 12 17 21 18 28 6 56 34 56 57 0 16 2
17 10 5 8 -12 10 -9 10 12 0 19 14 40 48 72 47 45 72 57 72 34 0 -11 59 -68
70 -68 3 0 11 4 18 9 10 6 4 14 -25 32 -21 13 -46 34 -56 46 -10 13 -23 23
-30 23 -6 0 -20 9 -32 20 -19 18 -24 18 -41 6z m44 -48 c-6 -18 -28 -21 -28
-4 0 9 7 16 16 16 9 0 14 -5 12 -12z"/>
<path d="M6227 6402 c-10 -10 -17 -22 -17 -27 0 -5 9 1 21 14 12 12 19 24 17
27 -3 2 -12 -4 -21 -14z"/>
<path d="M6350 6381 c0 -5 7 -12 17 -15 14 -6 14 -8 -3 -20 -10 -8 -16 -18
-11 -22 4 -4 13 -2 19 4 16 16 28 15 28 -3 0 -8 -6 -14 -12 -12 -7 1 -12 -4
-10 -10 3 -16 -10 -17 -26 -1 -18 18 -25 3 -10 -21 17 -28 28 -26 62 15 l29
35 -23 24 c-13 13 -27 22 -31 19 -5 -3 -9 0 -9 5 0 6 -4 11 -10 11 -5 0 -10
-4 -10 -9z"/>
<path d="M6320 6355 c-14 -16 -3 -20 19 -6 8 5 9 11 3 15 -5 3 -15 -1 -22 -9z"/>
<path d="M6286 6331 c-4 -5 -2 -12 3 -15 5 -4 12 -2 15 3 4 5 2 12 -3 15 -5 4
-12 2 -15 -3z"/>
<path d="M6100 6270 c0 -5 5 -10 10 -10 6 0 10 5 10 10 0 6 -4 10 -10 10 -5 0
-10 -4 -10 -10z"/>
<path d="M6297 6249 c-15 -16 -32 -27 -37 -24 -6 3 -10 -3 -10 -14 0 -12 3
-21 7 -21 5 0 53 29 92 57 3 2 -2 10 -10 18 -12 12 -18 10 -42 -16z"/>
<path d="M6120 6235 c-11 -13 -10 -14 4 -9 9 3 16 10 16 15 0 13 -6 11 -20 -6z"/>
<path d="M13683 6516 c-37 -36 -87 -79 -110 -98 -23 -18 -106 -85 -185 -149
-79 -63 -155 -124 -169 -135 -14 -10 -62 -48 -105 -83 -43 -35 -124 -94 -179
-131 -120 -80 -218 -148 -301 -206 -34 -24 -67 -44 -73 -44 -6 0 -11 -4 -11
-10 0 -5 -4 -10 -10 -10 -5 0 -34 -16 -64 -35 -30 -19 -58 -35 -61 -35 -3 0
-54 -31 -113 -69 -59 -37 -192 -119 -297 -181 -104 -62 -251 -150 -325 -195
-181 -110 -376 -222 -480 -275 -47 -24 -124 -65 -171 -91 -48 -26 -149 -80
-225 -120 -365 -189 -425 -220 -511 -263 -95 -48 -180 -110 -164 -121 19 -11
104 16 217 70 63 30 117 55 119 55 3 0 55 24 117 54 62 30 151 72 198 94 47
23 146 73 220 112 74 39 185 98 245 129 61 32 173 96 250 142 77 46 148 88
157 94 10 5 57 35 105 65 49 30 95 58 103 63 8 4 42 22 75 40 183 100 246 137
397 237 88 58 114 75 163 98 32 16 142 97 235 172 31 25 69 54 84 65 15 11 59
44 98 74 39 29 101 73 137 97 66 45 115 81 181 134 114 91 179 145 272 225 58
50 129 108 157 130 29 22 60 48 69 58 9 10 29 30 43 46 20 20 25 31 17 44 -15
28 -34 20 -105 -47z"/>
<path d="M13700 6414 c-117 -96 -252 -215 -350 -309 -55 -53 -122 -111 -165
-143 -6 -4 -57 -38 -115 -77 -92 -61 -136 -94 -275 -212 -62 -53 -141 -111
-175 -129 -19 -10 -43 -25 -53 -33 -16 -14 -16 -15 0 -34 17 -20 17 -20 -2
-13 -11 5 -27 10 -36 13 -14 4 -137 -67 -314 -182 -90 -58 -216 -135 -245
-150 -11 -5 -20 -13 -20 -17 0 -5 -5 -8 -11 -8 -6 0 -48 -22 -93 -49 -44 -27
-108 -63 -141 -81 -71 -39 -82 -46 -222 -130 -59 -36 -156 -89 -215 -118 -106
-52 -134 -72 -104 -72 9 0 16 -4 16 -10 0 -13 -6 -13 -30 2 -22 14 -73 -7
-180 -77 -36 -23 -78 -49 -93 -57 l-28 -14 83 -43 c46 -24 120 -66 166 -95 45
-28 96 -59 112 -69 28 -18 30 -18 75 7 62 35 184 116 191 127 3 5 -2 9 -11 9
-12 0 -15 6 -10 20 5 14 2 20 -9 20 -9 0 -16 4 -16 9 0 6 12 6 30 0 27 -10 35
-20 31 -41 0 -5 3 -8 8 -8 7 0 253 135 291 160 8 5 31 18 50 28 88 46 181 108
173 115 -3 4 -1 7 6 7 14 0 104 60 109 73 2 4 10 7 18 7 9 0 24 5 35 10 18 10
18 12 -8 37 -41 38 -120 87 -206 127 -71 34 -95 51 -84 62 2 3 17 -2 33 -10
16 -8 55 -27 86 -41 32 -15 84 -46 117 -71 32 -24 63 -44 69 -44 5 0 12 -7 16
-15 8 -22 25 -18 23 4 0 11 -4 19 -7 19 -17 -2 -20 4 -6 17 20 20 26 19 26 -5
0 -11 5 -20 10 -20 6 0 10 4 10 10 0 5 15 16 33 24 17 8 49 30 70 50 21 20 44
36 52 36 8 0 19 9 25 20 8 15 17 19 31 15 11 -4 19 -2 19 5 0 7 6 10 14 7 21
-8 95 21 146 57 25 17 74 49 110 70 82 49 172 110 230 156 164 132 206 165
210 171 3 3 48 40 101 80 160 123 379 306 469 393 47 45 114 108 150 140 70
64 91 92 82 114 -7 20 -111 172 -144 210 -15 18 -33 32 -40 32 -7 0 -60 -39
-118 -86z m-923 -1163 c-10 -4 -27 17 -27 33 0 5 8 1 19 -10 10 -10 14 -21 8
-23z m-787 -161 c26 -26 13 -26 -20 0 -14 11 -19 20 -12 20 6 0 21 -9 32 -20z
m450 -11 c0 -5 -4 -9 -10 -9 -5 0 -10 7 -10 16 0 8 5 12 10 9 6 -3 10 -10 10
-16z m-307 -55 c54 -27 77 -46 77 -66 -1 -8 -6 -5 -16 7 -13 17 -16 18 -24 5
-8 -12 -10 -11 -10 8 0 12 -6 22 -13 22 -7 0 -32 9 -55 20 -22 11 -45 20 -51
20 -5 0 -13 5 -17 11 -10 17 52 1 109 -27z m177 -54 c0 -5 -7 -10 -16 -10 -8
0 -12 5 -9 10 3 6 10 10 16 10 5 0 9 -4 9 -10z m-649 -220 c32 -23 59 -44 59
-48 0 -4 18 -20 40 -36 22 -17 40 -34 40 -38 0 -11 -39 12 -64 38 -12 11 -51
40 -88 63 -63 40 -83 61 -57 61 5 0 37 -18 70 -40z m-446 -70 c3 -5 1 -10 -4
-10 -6 0 -11 5 -11 10 0 6 2 10 4 10 3 0 8 -4 11 -10z"/>
<path d="M6942 5883 c36 -79 112 -224 119 -229 5 -3 14 -2 20 2 8 4 7 9 -2 15
-10 6 -9 10 6 15 11 5 20 3 23 -4 2 -7 8 -9 14 -6 6 4 5 10 -3 15 -11 6 -8 13
11 31 14 13 28 22 32 21 13 -5 9 12 -8 33 -8 10 -13 13 -9 6 7 -13 -17 -42
-35 -42 -6 0 -8 -5 -4 -12 5 -9 2 -8 -9 1 -11 9 -15 21 -11 34 5 16 3 19 -14
15 -15 -4 -19 -2 -15 8 4 10 -3 14 -21 14 -16 0 -26 6 -26 14 0 17 -48 76 -62
76 -5 0 -8 -3 -6 -7z"/>
<path d="M7164 5716 c-10 -8 -16 -17 -13 -20 3 -4 17 2 30 13 27 23 13 28 -17
7z"/>
<path d="M15779 5731 c-47 -29 -243 -266 -237 -286 1 -5 103 -92 227 -192
l224 -182 65 82 c98 123 140 193 152 251 27 130 -56 254 -221 331 -77 36 -150
34 -210 -4z"/>
<path d="M7433 5493 c9 -2 23 -2 30 0 6 3 -1 5 -18 5 -16 0 -22 -2 -12 -5z"/>
<path d="M7710 5312 c0 -4 -13 -13 -30 -19 -16 -6 -33 -20 -36 -30 -3 -10 -10
-26 -15 -36 -6 -11 -8 -22 -5 -25 3 -3 6 0 6 6 0 16 20 15 20 0 1 -7 8 -29 18
-49 17 -36 24 -38 67 -18 37 17 148 48 156 44 4 -3 9 8 12 23 4 20 0 31 -16
44 -31 24 -34 23 -29 -17 3 -22 0 -35 -7 -35 -8 0 -11 17 -10 46 2 36 -1 50
-16 60 -20 15 -115 20 -115 6z"/>
<path d="M7573 5229 c2 -19 50 -79 64 -79 3 0 -7 17 -23 37 -18 24 -24 38 -16
41 19 6 14 22 -8 22 -14 0 -19 -6 -17 -21z"/>
<path d="M14921 4679 c12 -47 115 -339 120 -339 3 0 54 46 113 101 l107 102
-158 69 c-87 38 -164 72 -172 75 -8 4 -12 1 -10 -8z"/>
<path d="M5301 4511 c-33 -38 -61 -74 -61 -79 0 -15 219 -197 267 -221 56 -28
76 -27 115 8 43 39 44 88 3 132 -27 28 -204 184 -246 217 -14 10 -25 2 -78
-57z"/>
<path d="M5048 4222 l-77 -87 46 -40 c196 -170 276 -225 326 -225 43 0 87 28
103 66 13 30 12 38 -1 71 -9 21 -23 46 -33 56 -14 16 -220 192 -272 234 -13
10 -28 -3 -92 -75z"/>
<path d="M14082 4080 c-81 -37 -262 -161 -254 -175 58 -98 307 -485 311 -485
17 0 202 128 243 168 112 109 98 260 -39 411 -87 97 -170 123 -261 81z"/>
<path d="M7177 3413 c-3 -5 -25 -54 -50 -110 l-45 -101 101 -43 c218 -90 257
-96 308 -51 25 23 33 38 36 78 8 83 -15 102 -225 188 -125 51 -119 49 -125 39z"/>
<path d="M12695 3342 c-27 -11 -96 -36 -152 -57 l-102 -38 40 -110 c21 -61 41
-112 43 -114 8 -8 288 106 320 131 40 30 52 71 36 119 -25 76 -95 102 -185 69z"/>
</g>
</svg>
